<?xml version="1.0" encoding="UTF-8" ?>
<!DOCTYPE svg PUBLIC "-//W3C//DTD SVG 1.1//EN" "http://www.w3.org/Graphics/SVG/1.1/DTD/svg11.dtd">
<svg width="1351pt" height="1039pt" viewBox="0 0 1351 1039" version="1.1" xmlns="http://www.w3.org/2000/svg">
<g id="#474b4eff">
</g>
<g id="#ef6b4cff">
<path fill="#ef6b4c" opacity="1.00" d=" M 666.41 34.72 C 675.89 34.07 685.42 34.06 694.90 34.83 C 721.91 35.68 748.74 41.28 773.91 51.12 C 788.67 56.45 802.69 63.61 816.02 71.86 C 834.78 84.02 852.56 97.80 868.26 113.74 C 878.87 124.21 888.90 135.39 896.94 148.00 C 916.76 178.53 931.17 212.90 936.92 248.95 C 939.66 265.13 940.56 281.56 940.77 297.96 C 940.19 315.38 939.27 332.90 935.70 350.01 C 928.05 386.15 911.88 420.20 890.24 450.02 C 872.35 473.99 850.16 494.70 825.27 511.26 C 806.60 523.65 786.32 533.50 765.39 541.43 C 755.92 544.82 746.09 547.03 736.29 549.21 C 725.03 551.88 713.50 553.37 701.96 554.06 C 678.28 556.16 654.26 554.95 630.98 550.00 C 614.05 547.02 597.45 542.15 581.69 535.29 C 561.63 526.71 542.50 515.89 524.93 502.95 C 497.59 482.06 473.44 456.51 456.54 426.38 C 441.70 400.93 431.82 372.82 425.94 344.00 C 421.07 323.02 422.52 301.33 422.16 279.97 C 421.60 259.81 426.41 240.03 431.80 220.75 C 438.81 198.33 448.42 176.71 460.73 156.69 C 481.49 123.13 510.39 94.97 543.32 73.40 C 559.02 63.72 575.50 55.16 592.96 49.12 C 603.34 45.57 613.81 42.22 624.48 39.65 C 638.27 36.72 652.33 35.19 666.41 34.72 M 647.03 49.99 C 608.36 55.04 571.28 70.17 539.24 92.25 C 509.25 114.10 484.29 142.61 465.68 174.66 C 452.37 197.92 443.81 223.66 438.50 249.86 C 426.18 314.21 441.06 383.46 479.24 436.78 C 488.37 449.75 499.47 461.16 510.79 472.21 C 525.62 486.43 542.00 499.10 559.95 509.17 C 595.48 527.78 634.91 541.34 675.45 540.49 C 675.56 504.58 675.57 468.67 675.42 432.76 C 652.47 431.06 629.67 425.95 608.73 416.26 C 595.53 410.65 583.49 402.63 572.71 393.21 C 558.88 381.34 546.64 367.49 537.02 351.99 C 520.69 325.07 512.07 293.46 512.97 261.96 C 512.95 259.60 514.20 256.77 516.98 257.02 C 529.79 256.05 542.69 257.79 555.11 260.88 C 568.80 263.58 581.90 268.76 594.34 274.99 C 595.23 253.33 594.52 231.65 595.07 209.99 C 595.39 197.90 593.87 185.69 596.25 173.73 C 599.98 174.38 603.94 174.74 607.19 176.88 C 625.66 188.53 641.47 204.02 654.69 221.32 C 667.01 236.59 675.05 254.72 681.54 273.09 C 685.38 267.10 686.51 259.97 689.33 253.54 C 695.85 237.51 705.50 222.85 717.03 209.99 C 728.36 196.87 741.47 185.07 756.68 176.64 C 759.99 174.63 763.91 174.41 767.68 174.25 C 768.43 207.91 767.57 241.57 767.96 275.23 C 773.95 272.57 779.68 269.38 785.67 266.74 C 805.69 258.14 827.78 256.13 849.35 256.60 C 852.04 264.15 850.73 272.23 850.08 280.01 C 844.62 331.59 814.25 379.69 770.58 407.49 C 756.19 416.37 740.25 422.36 724.16 427.31 C 712.59 430.96 700.32 430.94 688.58 433.71 C 688.41 469.34 688.52 504.96 688.47 540.59 C 702.50 541.06 716.48 538.80 730.23 536.20 C 751.19 532.33 771.00 524.12 790.39 515.51 C 815.93 503.63 838.21 485.81 858.12 466.09 C 867.70 456.59 876.51 446.32 884.49 435.45 C 903.23 408.63 916.23 377.93 922.95 345.93 C 927.72 323.34 930.43 300.06 927.95 277.00 C 926.06 259.12 922.86 241.32 918.07 223.99 C 911.73 202.99 902.66 182.76 890.83 164.27 C 883.80 152.90 875.24 142.59 866.75 132.30 C 855.74 118.97 842.90 107.27 829.25 96.71 C 812.86 84.86 795.40 74.37 776.88 66.21 C 755.67 56.88 732.84 51.66 709.85 49.22 C 688.98 46.70 667.88 47.88 647.03 49.99 M 606.96 190.90 C 608.25 200.56 607.47 210.34 608.24 220.04 C 609.34 241.02 606.85 262.06 608.89 283.00 C 616.78 289.19 625.37 294.48 632.79 301.28 C 643.22 310.88 652.75 321.56 660.28 333.61 C 666.25 342.58 671.64 352.01 675.32 362.17 C 675.96 337.49 676.19 312.51 670.85 288.27 C 663.68 255.62 646.50 224.88 621.02 203.03 C 616.35 198.96 610.69 195.98 606.96 190.90 M 740.41 205.34 C 728.51 215.59 718.15 227.72 710.49 241.46 C 701.23 257.74 694.38 275.49 691.03 293.93 C 688.25 315.35 688.11 336.98 687.40 358.53 C 692.95 352.61 695.65 344.78 700.03 338.05 C 707.63 324.25 718.12 312.33 729.64 301.70 C 737.92 294.55 746.66 287.97 755.26 281.21 C 755.29 252.22 755.40 223.23 755.34 194.24 C 749.53 196.73 745.13 201.32 740.41 205.34 M 525.71 271.01 C 526.62 302.07 537.51 332.86 556.70 357.34 C 575.52 379.41 598.84 398.67 626.51 408.34 C 641.39 414.10 657.11 418.48 673.18 418.50 C 673.68 392.02 664.92 366.11 651.28 343.66 C 643.08 330.91 632.90 319.43 621.62 309.32 C 594.97 286.55 560.61 273.28 525.71 271.01 M 814.97 273.95 C 783.37 280.14 753.34 295.70 731.23 319.29 C 719.89 331.37 709.90 344.90 702.99 360.01 C 694.37 378.63 689.05 398.92 688.73 419.49 C 711.26 416.86 734.02 412.19 754.07 401.15 C 761.90 396.94 768.91 391.44 776.00 386.12 C 788.38 376.96 799.67 366.23 809.11 354.04 C 825.56 329.45 836.64 300.60 837.17 270.77 C 829.79 271.97 822.31 272.51 814.97 273.95 Z" />
<path fill="#ef6b4c" opacity="1.00" d=" M 676.30 137.33 C 689.81 135.12 704.36 143.46 708.68 156.56 C 711.59 164.87 710.61 174.47 706.01 181.98 C 698.71 193.75 682.37 199.19 669.66 193.35 C 661.80 189.54 655.44 182.49 653.00 174.05 C 648.24 158.28 659.54 139.17 676.30 137.33 M 678.38 150.54 C 668.58 151.85 662.02 163.71 666.24 172.69 C 668.68 178.90 675.71 182.18 682.09 181.96 C 691.98 181.67 699.96 170.99 697.44 161.44 C 694.90 153.76 686.22 149.12 678.38 150.54 Z" />
<path fill="#ef6b4c" opacity="1.00" d=" M 701.18 864.90 C 704.93 865.51 708.69 866.13 712.42 866.87 C 712.31 896.55 712.35 926.24 712.39 955.92 C 708.36 956.26 704.30 956.41 700.31 955.75 C 699.77 945.52 700.07 935.27 700.00 925.03 C 700.03 907.00 699.86 888.96 700.31 870.93 C 700.41 868.89 700.81 866.89 701.18 864.90 Z" />
<path fill="#ef6b4c" opacity="1.00" d=" M 733.20 866.47 C 736.43 866.07 739.66 865.67 742.89 865.16 C 744.73 871.63 743.86 878.41 743.77 885.03 C 742.70 908.87 744.28 932.71 744.04 956.55 C 740.68 956.71 737.32 956.81 733.97 956.85 C 732.09 926.77 733.56 896.59 733.20 866.47 Z" />
<path fill="#ef6b4c" opacity="1.00" d=" M 1030.20 872.27 C 1041.67 868.10 1055.15 869.84 1065.02 877.08 C 1068.81 879.73 1071.69 883.41 1074.45 887.08 C 1071.41 888.95 1068.35 890.81 1065.32 892.67 C 1061.56 887.50 1056.25 883.35 1049.95 881.87 C 1041.09 879.23 1030.27 882.08 1025.00 889.96 C 1019.39 898.47 1019.16 909.13 1019.50 918.97 C 1019.63 927.47 1021.72 936.74 1028.41 942.54 C 1035.62 949.20 1046.79 949.21 1055.37 945.39 C 1060.16 943.24 1063.02 938.66 1066.32 934.83 C 1069.26 936.69 1072.98 938.41 1073.82 942.15 C 1073.06 945.91 1069.82 948.47 1067.05 950.82 C 1056.82 958.94 1042.60 959.41 1030.38 956.47 C 1022.60 953.95 1016.19 947.87 1012.42 940.70 C 1008.27 932.78 1007.04 923.72 1006.69 914.90 C 1006.26 903.12 1009.16 890.92 1016.36 881.43 C 1019.68 876.81 1024.99 874.19 1030.20 872.27 Z" />
<path fill="#ef6b4c" opacity="1.00" d=" M 669.04 871.03 C 672.99 870.98 676.94 870.98 680.90 871.04 C 680.97 875.02 680.98 879.00 680.95 882.99 C 676.94 883.00 672.92 883.00 668.91 883.00 C 668.98 879.00 669.00 875.01 669.04 871.03 Z" />
<path fill="#ef6b4c" opacity="1.00" d=" M 259.87 872.47 C 268.24 872.25 276.64 871.56 284.99 872.49 C 291.84 873.26 299.26 871.97 305.52 875.51 C 310.64 878.35 313.05 884.36 313.03 890.01 C 313.07 894.61 313.37 899.73 310.49 903.64 C 308.07 906.64 304.65 908.56 301.60 910.85 C 306.13 912.88 311.52 914.04 314.77 918.10 C 318.95 924.78 318.65 933.29 316.63 940.65 C 314.92 946.91 309.29 951.08 303.55 953.45 C 296.38 956.10 288.61 956.14 281.07 956.00 C 274.04 956.03 267.02 955.68 260.00 955.93 C 259.95 928.11 260.12 900.29 259.87 872.47 M 271.04 883.00 C 270.61 891.21 270.73 899.46 271.50 907.65 C 277.58 906.65 283.75 906.62 289.89 906.40 C 293.81 906.43 297.11 904.15 300.02 901.78 C 300.13 896.81 300.11 891.84 300.03 886.87 C 297.47 885.51 294.93 883.88 291.98 883.61 C 285.02 882.93 278.02 882.99 271.04 883.00 M 270.48 918.02 C 270.65 927.38 270.43 936.78 271.58 946.10 C 280.41 946.01 289.37 946.18 298.01 944.10 C 302.70 943.03 305.82 938.48 306.42 933.90 C 307.25 928.97 305.29 924.18 302.94 919.96 C 292.40 916.77 281.32 917.45 270.48 918.02 Z" />
<path fill="#ef6b4c" opacity="1.00" d=" M 884.87 871.98 C 889.86 872.00 894.86 872.00 899.86 871.99 C 910.07 899.85 918.93 928.19 929.35 955.97 C 925.08 956.02 920.82 956.02 916.57 955.93 C 914.50 948.89 912.08 941.96 909.77 935.00 C 898.51 935.35 887.14 934.21 875.97 935.75 C 872.30 941.65 871.34 948.68 869.12 955.15 C 865.76 957.93 860.83 956.85 856.78 956.69 C 866.16 928.46 875.59 900.25 884.87 871.98 M 880.66 923.89 C 888.85 924.28 897.02 922.50 905.20 923.60 C 903.41 918.06 901.81 912.46 900.27 906.85 C 897.89 898.15 894.73 889.63 893.42 880.68 C 889.71 895.24 882.55 908.88 880.66 923.89 Z" />
<path fill="#ef6b4c" opacity="1.00" d=" M 763.17 898.43 C 770.13 892.86 779.26 890.27 788.09 890.32 C 794.57 890.70 801.34 892.33 806.45 896.54 C 810.77 900.47 810.87 906.80 811.36 912.20 C 812.23 926.79 811.83 941.42 811.79 956.03 C 808.61 955.99 805.44 955.93 802.27 955.85 C 801.88 953.42 801.48 950.99 801.06 948.58 C 794.81 952.16 789.41 957.79 782.01 958.91 C 770.46 959.77 760.30 948.38 761.63 937.03 C 761.17 927.84 769.08 920.72 777.39 918.59 C 784.83 916.78 792.52 915.93 800.18 915.95 C 799.84 911.69 801.01 906.54 797.70 903.19 C 792.41 899.73 785.45 899.44 779.63 901.72 C 774.95 903.57 770.27 905.60 765.23 906.22 C 764.46 903.66 763.13 901.14 763.17 898.43 M 782.09 926.97 C 776.57 928.66 771.65 933.81 772.58 939.94 C 772.64 944.42 776.83 947.59 780.98 948.11 C 788.19 948.95 795.27 945.06 799.74 939.60 C 802.20 934.98 801.06 929.44 800.29 924.53 C 794.21 925.12 787.96 925.17 782.09 926.97 Z" />
<path fill="#ef6b4c" opacity="1.00" d=" M 406.22 907.12 C 409.06 898.15 417.81 891.90 427.00 890.95 C 435.25 889.82 444.93 891.70 450.04 898.88 C 455.86 906.63 456.29 916.68 456.54 925.99 C 442.42 926.03 428.30 925.96 414.19 926.03 C 414.56 932.41 415.15 939.43 419.66 944.39 C 425.03 949.30 433.50 950.46 440.00 947.16 C 442.48 945.82 444.35 943.64 446.21 941.57 C 448.84 942.28 451.45 943.09 454.04 943.97 C 452.51 949.34 449.08 954.55 443.62 956.51 C 437.16 958.72 430.05 958.73 423.38 957.58 C 412.45 954.69 405.29 943.86 403.92 933.05 C 403.05 924.41 403.46 915.40 406.22 907.12 M 419.10 905.10 C 415.96 908.98 415.39 914.13 414.64 918.89 C 421.37 918.04 428.17 917.96 434.95 918.02 C 438.90 918.16 442.97 917.12 446.80 918.56 C 444.67 912.92 443.97 906.03 438.76 902.20 C 432.70 898.43 423.58 899.23 419.10 905.10 Z" />
<path fill="#ef6b4c" opacity="1.00" d=" M 483.13 901.50 C 488.02 896.51 493.77 891.35 501.07 890.72 C 507.01 889.81 513.72 891.45 517.41 896.50 C 521.56 901.30 521.44 907.98 521.87 913.94 C 522.22 928.24 521.79 942.55 522.12 956.85 C 518.10 956.87 514.07 956.74 510.07 956.35 C 510.06 942.23 509.96 928.12 510.05 914.01 C 510.16 909.77 509.21 905.61 508.20 901.53 C 503.26 901.45 498.19 901.69 493.57 903.61 C 489.11 905.17 485.59 908.43 482.01 911.39 C 481.92 926.20 482.07 941.02 481.85 955.84 C 478.27 956.00 474.70 956.00 471.13 955.83 C 470.50 952.89 470.27 949.88 470.44 946.89 C 471.20 928.60 470.46 910.30 470.36 892.02 C 474.14 892.07 477.92 892.27 481.69 892.63 C 482.14 895.59 482.66 898.54 483.13 901.50 Z" />
<path fill="#ef6b4c" opacity="1.00" d=" M 543.74 895.78 C 553.42 890.38 565.24 889.32 575.87 892.27 C 579.14 893.14 582.33 894.82 584.28 897.69 C 588.21 903.26 588.57 910.39 588.89 916.97 C 589.09 930.33 589.04 943.69 588.81 957.05 C 585.55 956.88 582.31 956.59 579.11 956.07 C 578.28 953.62 577.46 951.18 576.66 948.73 C 572.64 952.06 568.99 956.31 563.72 957.61 C 559.43 958.50 554.85 958.73 550.62 957.43 C 545.17 955.63 541.60 950.64 539.28 945.66 C 535.34 937.28 538.67 926.32 546.43 921.36 C 555.79 916.08 566.90 917.21 577.19 915.96 C 576.83 911.02 576.79 904.84 572.15 901.81 C 567.47 899.71 562.04 899.79 557.13 901.03 C 553.02 902.04 550.01 905.36 546.00 906.59 C 540.91 906.19 539.23 898.17 543.74 895.78 M 552.24 930.38 C 549.74 932.79 549.76 936.75 549.94 940.00 C 550.17 945.04 554.83 949.82 560.06 949.01 C 566.36 948.04 571.35 943.70 576.54 940.34 C 576.93 936.32 577.44 932.23 576.75 928.23 C 576.29 926.52 575.24 924.23 573.09 924.58 C 565.80 924.66 558.63 926.94 552.24 930.38 Z" />
<path fill="#ef6b4c" opacity="1.00" d=" M 336.08 892.00 C 339.59 892.10 343.09 892.28 346.60 892.56 C 347.13 909.09 345.43 925.70 347.46 942.17 C 347.64 946.73 353.28 947.95 356.98 947.99 C 363.40 946.58 368.88 942.66 374.50 939.42 C 375.50 923.65 374.77 907.84 375.01 892.05 C 378.68 892.12 382.36 892.19 386.04 892.21 C 386.46 913.47 386.54 934.74 386.58 956.00 C 383.12 955.99 379.66 956.00 376.19 956.00 C 375.64 953.23 375.10 950.46 374.64 947.68 C 368.94 952.39 362.50 956.72 355.00 957.67 C 346.53 959.14 336.75 953.13 336.42 944.03 C 335.62 926.71 336.11 909.34 336.08 892.00 Z" />
<path fill="#ef6b4c" opacity="1.00" d=" M 603.08 892.03 C 606.67 892.08 612.00 890.97 613.56 895.32 C 619.48 910.40 623.71 926.07 629.11 941.32 C 632.94 936.27 632.96 929.66 635.10 923.90 C 638.65 913.41 642.65 903.00 644.31 892.00 C 648.27 891.97 652.24 892.02 656.20 892.22 C 653.90 902.53 649.19 912.05 645.98 922.07 C 642.14 933.41 638.00 944.66 633.86 955.90 C 631.16 956.57 628.44 957.16 625.74 957.79 C 617.33 941.65 612.65 923.96 605.92 907.11 C 603.92 902.34 603.44 897.14 603.08 892.03 Z" />
<path fill="#ef6b4c" opacity="1.00" d=" M 669.14 892.05 C 672.63 892.11 676.13 892.18 679.63 892.27 C 680.87 913.53 678.92 934.89 680.53 956.13 C 676.77 956.82 672.94 957.03 669.13 956.81 C 669.00 935.22 668.99 913.64 669.14 892.05 Z" />
<path fill="#ef6b4c" opacity="1.00" d=" M 942.71 945.05 C 945.59 943.23 949.09 940.24 952.62 942.43 C 956.83 944.73 957.07 950.00 958.15 954.14 C 953.44 956.33 948.16 956.71 943.05 956.16 C 943.01 952.45 942.92 948.75 942.71 945.05 Z" />
<path fill="#ef6b4c" opacity="1.00" d=" M 1091.52 945.60 C 1093.67 942.62 1097.49 942.58 1100.70 943.64 C 1103.58 946.52 1104.01 950.81 1104.55 954.65 C 1101.40 955.45 1098.29 956.65 1095.01 956.76 C 1093.20 956.42 1091.55 955.57 1089.87 954.91 C 1089.16 951.70 1088.51 947.88 1091.52 945.60 Z" />
</g>
<g id="#fffffeff">
<path fill="#fffffe" opacity="1.00" d=" M 647.03 49.99 C 667.88 47.88 688.98 46.70 709.85 49.22 C 732.84 51.66 755.67 56.88 776.88 66.21 C 795.40 74.37 812.86 84.86 829.25 96.71 C 842.90 107.27 855.74 118.97 866.75 132.30 C 875.24 142.59 883.80 152.90 890.83 164.27 C 902.66 182.76 911.73 202.99 918.07 223.99 C 922.86 241.32 926.06 259.12 927.95 277.00 C 930.43 300.06 927.72 323.34 922.95 345.93 C 916.23 377.93 903.23 408.63 884.49 435.45 C 876.51 446.32 867.70 456.59 858.12 466.09 C 838.21 485.81 815.93 503.63 790.39 515.51 C 771.00 524.12 751.19 532.33 730.23 536.20 C 716.48 538.80 702.50 541.06 688.47 540.59 C 688.52 504.96 688.41 469.34 688.58 433.71 C 700.32 430.94 712.59 430.96 724.16 427.31 C 740.25 422.36 756.19 416.37 770.58 407.49 C 814.25 379.69 844.62 331.59 850.08 280.01 C 850.73 272.23 852.04 264.15 849.35 256.60 C 827.78 256.13 805.69 258.14 785.67 266.74 C 779.68 269.38 773.95 272.57 767.96 275.23 C 767.57 241.57 768.43 207.91 767.68 174.25 C 763.91 174.41 759.99 174.63 756.68 176.64 C 741.47 185.07 728.36 196.87 717.03 209.99 C 705.50 222.85 695.85 237.51 689.33 253.54 C 686.51 259.97 685.38 267.10 681.54 273.09 C 675.05 254.72 667.01 236.59 654.69 221.32 C 641.47 204.02 625.66 188.53 607.19 176.88 C 603.94 174.74 599.98 174.38 596.25 173.73 C 593.87 185.69 595.39 197.90 595.07 209.99 C 594.52 231.65 595.23 253.33 594.34 274.99 C 581.90 268.76 568.80 263.58 555.11 260.88 C 542.69 257.79 529.79 256.05 516.98 257.02 C 514.20 256.77 512.95 259.60 512.97 261.96 C 512.07 293.46 520.69 325.07 537.02 351.99 C 546.64 367.49 558.88 381.34 572.71 393.21 C 583.49 402.63 595.53 410.65 608.73 416.26 C 629.67 425.95 652.47 431.06 675.42 432.76 C 675.57 468.67 675.56 504.58 675.45 540.49 C 634.91 541.34 595.48 527.78 559.95 509.17 C 542.00 499.10 525.62 486.43 510.79 472.21 C 499.47 461.16 488.37 449.75 479.24 436.78 C 441.06 383.46 426.18 314.21 438.50 249.86 C 443.81 223.66 452.37 197.92 465.68 174.66 C 484.29 142.61 509.25 114.10 539.24 92.25 C 571.28 70.17 608.36 55.04 647.03 49.99 M 676.30 137.33 C 659.54 139.17 648.24 158.28 653.00 174.05 C 655.44 182.49 661.80 189.54 669.66 193.35 C 682.37 199.19 698.71 193.75 706.01 181.98 C 710.61 174.47 711.59 164.87 708.68 156.56 C 704.36 143.46 689.81 135.12 676.30 137.33 Z" />
<path fill="#fffffe" opacity="1.00" d=" M 678.38 150.54 C 686.22 149.12 694.90 153.76 697.44 161.44 C 699.96 170.99 691.98 181.67 682.09 181.96 C 675.71 182.18 668.68 178.90 666.24 172.69 C 662.02 163.71 668.58 151.85 678.38 150.54 Z" />
<path fill="#fffffe" opacity="1.00" d=" M 606.96 190.90 C 610.69 195.98 616.35 198.96 621.02 203.03 C 646.50 224.88 663.68 255.62 670.85 288.27 C 676.19 312.51 675.96 337.49 675.32 362.17 C 671.64 352.01 666.25 342.58 660.28 333.61 C 652.75 321.56 643.22 310.88 632.79 301.28 C 625.37 294.48 616.78 289.19 608.89 283.00 C 606.85 262.06 609.34 241.02 608.24 220.04 C 607.47 210.34 608.25 200.56 606.96 190.90 Z" />
<path fill="#fffffe" opacity="1.00" d=" M 740.41 205.34 C 745.13 201.32 749.53 196.73 755.34 194.24 C 755.40 223.23 755.29 252.22 755.26 281.21 C 746.66 287.97 737.92 294.55 729.64 301.70 C 718.12 312.33 707.63 324.25 700.03 338.05 C 695.65 344.78 692.95 352.61 687.40 358.53 C 688.11 336.98 688.25 315.35 691.03 293.93 C 694.38 275.49 701.23 257.74 710.49 241.46 C 718.15 227.72 728.51 215.59 740.41 205.34 Z" />
<path fill="#fffffe" opacity="1.00" d=" M 525.71 271.01 C 560.61 273.28 594.97 286.55 621.62 309.32 C 632.90 319.43 643.08 330.91 651.28 343.66 C 664.92 366.11 673.68 392.02 673.18 418.50 C 657.11 418.48 641.39 414.10 626.51 408.34 C 598.84 398.67 575.52 379.41 556.70 357.34 C 537.51 332.86 526.62 302.07 525.71 271.01 Z" />
<path fill="#fffffe" opacity="1.00" d=" M 814.97 273.95 C 822.31 272.51 829.79 271.97 837.17 270.77 C 836.64 300.60 825.56 329.45 809.11 354.04 C 799.67 366.23 788.38 376.96 776.00 386.12 C 768.91 391.44 761.90 396.94 754.07 401.15 C 734.02 412.19 711.26 416.86 688.73 419.49 C 689.05 398.92 694.37 378.63 702.99 360.01 C 709.90 344.90 719.89 331.37 731.23 319.29 C 753.34 295.70 783.37 280.14 814.97 273.95 Z" />
<path fill="#fffffe" opacity="1.00" d=" M 487.44 603.47 C 500.18 597.49 514.18 594.23 528.24 593.69 C 550.95 592.16 573.96 596.41 594.88 605.35 C 596.25 615.29 596.10 625.34 595.94 635.36 C 591.14 630.61 588.26 624.36 583.70 619.42 C 572.34 608.38 557.24 601.44 541.55 599.53 C 522.44 596.78 502.03 599.15 485.31 609.33 C 472.18 616.60 462.46 628.98 456.77 642.72 C 452.62 652.69 450.20 663.40 449.74 674.20 C 448.36 691.78 449.85 710.16 457.84 726.15 C 465.38 743.00 478.00 757.83 494.40 766.56 C 505.06 772.27 516.92 775.86 529.01 776.53 C 545.96 778.59 564.15 775.33 577.98 764.89 C 586.59 758.73 592.98 749.95 597.46 740.45 C 598.55 737.98 600.55 736.13 602.70 734.56 C 601.29 743.02 599.94 751.52 599.67 760.11 C 599.62 763.84 597.57 767.56 594.09 769.12 C 574.78 777.31 553.85 781.06 532.98 781.99 C 515.00 782.53 496.51 780.03 480.30 771.85 C 465.67 764.71 453.08 753.25 445.14 738.99 C 425.06 703.85 429.73 656.01 457.08 625.96 C 465.78 616.77 476.02 608.98 487.44 603.47 Z" />
<path fill="#fffffe" opacity="1.00" d=" M 1019.46 593.61 C 1041.61 591.23 1065.14 594.61 1083.99 607.12 C 1099.15 616.89 1110.86 631.56 1117.87 648.11 C 1126.14 668.60 1126.56 691.47 1122.91 713.01 C 1117.56 740.11 1098.00 764.00 1072.37 774.40 C 1063.22 778.79 1053.08 780.29 1043.09 781.46 C 1022.92 783.54 1001.57 780.72 984.07 769.92 C 966.82 760.27 953.22 744.35 946.24 725.86 C 941.46 713.50 939.67 700.20 939.43 687.01 C 939.54 675.38 940.55 663.60 944.54 652.59 C 952.98 628.20 972.32 607.31 996.92 598.83 C 1004.21 596.29 1011.78 594.51 1019.46 593.61 M 1015.45 598.73 C 993.95 600.31 973.29 613.15 963.15 632.29 C 950.04 659.88 951.63 692.80 963.30 720.59 C 970.85 737.41 982.09 753.05 997.52 763.46 C 1011.95 773.81 1030.37 778.47 1047.99 776.33 C 1064.73 775.24 1081.24 768.15 1092.60 755.62 C 1101.01 746.78 1105.83 735.17 1108.66 723.46 C 1113.42 702.57 1111.01 680.42 1103.58 660.44 C 1098.21 645.56 1089.29 632.05 1078.14 620.87 C 1061.48 605.43 1038.39 595.61 1015.45 598.73 Z" />
<path fill="#fffffe" opacity="1.00" d=" M 53.82 594.65 C 65.82 594.49 77.93 593.35 89.85 595.26 C 87.45 597.30 84.93 599.19 82.32 600.95 C 82.86 609.30 86.62 616.87 89.41 624.62 C 96.45 643.41 104.08 661.96 111.19 680.72 C 119.71 703.10 128.73 725.28 137.17 747.68 C 139.33 753.19 141.20 758.83 143.87 764.14 C 150.07 745.40 157.76 727.20 164.67 708.72 C 173.47 685.82 182.47 662.99 191.05 640.00 C 194.41 630.78 198.36 621.68 200.13 611.98 C 200.42 609.38 201.39 606.57 200.02 604.12 C 198.10 600.60 194.84 598.11 192.14 595.23 C 202.46 593.51 212.90 594.78 223.27 595.11 C 218.98 599.18 213.39 601.93 210.10 607.00 C 204.39 615.44 201.26 625.23 197.52 634.62 C 177.90 684.68 159.44 735.20 138.62 784.77 C 134.21 779.77 132.30 773.30 129.80 767.27 C 113.90 727.73 98.16 688.12 82.66 648.41 C 77.32 634.99 72.36 621.35 65.40 608.65 C 62.47 603.28 57.92 599.10 53.82 594.65 Z" />
<path fill="#fffffe" opacity="1.00" d=" M 255.81 595.05 C 284.51 593.31 313.28 594.90 342.00 594.25 C 353.60 594.25 365.20 593.93 376.80 594.08 C 377.52 605.56 378.92 617.00 378.97 628.51 C 374.19 623.89 372.29 617.15 367.47 612.57 C 359.57 604.29 348.53 599.16 337.10 598.50 C 319.45 597.20 301.72 598.12 284.04 598.00 C 282.23 609.57 283.33 621.30 283.06 632.95 C 282.80 648.66 283.39 664.36 283.96 680.06 C 297.98 680.05 312.01 680.08 326.04 680.04 C 334.46 680.17 343.04 679.08 350.87 675.84 C 357.29 673.23 360.53 666.68 365.12 661.92 C 364.97 674.87 364.92 687.82 365.18 700.77 C 361.29 696.95 358.47 692.08 354.01 688.84 C 349.92 686.02 345.09 684.16 340.09 684.04 C 321.38 683.67 302.67 683.58 283.96 684.02 C 283.04 703.00 282.91 722.01 283.09 741.01 C 282.79 752.25 283.01 763.51 284.32 774.69 C 289.83 775.59 295.39 776.33 300.99 776.06 C 318.71 775.63 336.50 776.91 354.15 774.85 C 363.33 773.17 371.89 767.90 377.21 760.20 C 380.42 755.77 382.38 750.56 385.77 746.25 C 386.37 757.44 384.25 768.54 384.46 779.73 C 372.99 779.13 361.51 779.61 350.04 779.64 C 325.69 779.83 301.33 780.06 276.97 779.88 C 269.98 779.67 262.98 779.56 256.03 778.80 C 258.10 775.84 261.49 774.54 264.81 773.54 C 265.96 768.76 266.91 763.90 267.05 758.97 C 268.39 721.33 267.72 683.66 267.74 646.01 C 267.42 631.16 268.46 616.07 264.81 601.52 C 261.53 599.77 258.60 597.48 255.81 595.05 Z" />
<path fill="#fffffe" opacity="1.00" d=" M 648.40 594.64 C 661.63 594.57 674.86 594.50 688.10 594.33 C 685.44 598.19 681.46 600.85 678.65 604.56 C 675.86 608.09 676.80 612.81 676.55 616.97 C 675.51 662.64 676.24 708.33 676.09 754.01 C 676.17 758.74 676.26 763.59 677.69 768.15 C 679.50 772.86 684.40 775.10 687.87 778.41 C 682.51 780.75 676.60 779.80 670.94 779.94 C 665.28 779.86 659.61 780.12 653.96 779.80 C 651.78 779.83 650.21 778.13 648.53 777.03 C 651.21 776.16 653.91 775.37 656.65 774.67 C 657.76 770.06 659.68 765.66 660.21 760.92 C 661.33 754.66 660.95 748.29 661.01 741.98 C 661.05 703.30 661.04 664.61 661.01 625.93 C 660.70 618.49 660.29 610.77 657.18 603.89 C 655.36 599.90 651.48 597.54 648.40 594.64 Z" />
<path fill="#fffffe" opacity="1.00" d=" M 732.59 594.35 C 740.60 594.14 748.62 593.87 756.63 594.21 C 796.61 648.11 837.24 701.53 876.98 755.61 C 877.32 714.74 877.11 673.87 877.01 632.99 C 877.05 623.09 877.22 612.24 871.26 603.79 C 867.73 600.37 862.99 598.53 859.35 595.22 C 870.50 593.68 881.74 594.43 892.94 594.64 C 890.22 597.69 887.10 600.33 884.20 603.20 C 881.18 605.93 881.79 610.37 881.53 614.04 C 881.51 645.69 881.81 677.35 881.80 709.01 C 882.02 734.11 880.78 759.19 880.95 784.29 C 873.56 778.50 868.64 770.42 863.05 763.04 C 832.73 721.13 801.43 679.95 770.67 638.37 C 764.81 630.46 758.87 622.61 752.96 614.75 C 752.70 635.83 752.53 656.90 752.63 677.98 C 752.84 707.05 751.97 736.14 753.92 765.17 C 757.29 767.21 758.35 771.33 761.31 773.77 C 764.26 775.79 767.60 777.14 770.78 778.76 C 759.78 780.31 748.50 780.45 737.52 778.71 C 739.57 775.39 743.48 773.78 745.32 770.31 C 747.96 765.68 748.20 760.18 748.15 754.98 C 748.22 709.99 747.98 665.00 748.27 620.01 C 748.06 615.58 748.67 610.73 746.20 606.80 C 742.88 601.46 737.19 598.41 732.59 594.35 Z" />
<path fill="#fffffe" opacity="1.00" d=" M 1188.59 612.58 C 1199.48 600.44 1215.76 593.72 1232.01 593.96 C 1252.20 592.60 1272.93 595.65 1290.99 605.12 C 1292.50 614.91 1292.01 624.88 1291.78 634.75 C 1288.17 630.63 1286.02 625.53 1282.88 621.08 C 1273.67 608.70 1259.77 598.77 1243.97 597.97 C 1231.59 597.79 1218.31 597.78 1207.28 604.19 C 1199.35 609.18 1193.15 617.47 1192.05 626.93 C 1191.51 633.14 1191.32 639.64 1193.69 645.53 C 1196.93 653.85 1203.71 660.27 1211.20 664.87 C 1229.67 675.96 1250.52 682.23 1269.39 692.56 C 1276.56 696.73 1283.93 701.19 1288.81 708.10 C 1300.47 723.33 1299.58 746.55 1287.02 760.99 C 1276.78 773.53 1260.94 780.48 1245.05 781.95 C 1220.73 783.81 1195.59 777.39 1175.86 762.86 C 1174.71 751.14 1173.80 739.32 1174.53 727.54 C 1181.17 736.34 1184.19 747.31 1191.15 755.91 C 1199.65 766.74 1212.30 773.99 1225.80 776.50 C 1239.70 779.49 1255.26 778.53 1267.42 770.55 C 1273.64 766.47 1279.34 760.98 1282.03 753.89 C 1287.16 740.34 1282.81 723.62 1271.34 714.64 C 1248.01 695.94 1216.28 692.13 1193.52 672.52 C 1175.25 658.76 1173.66 629.35 1188.59 612.58 Z" />
</g>
</svg>
