<?xml version="1.0" encoding="UTF-8" ?>
<!DOCTYPE svg PUBLIC "-//W3C//DTD SVG 1.1//EN" "http://www.w3.org/Graphics/SVG/1.1/DTD/svg11.dtd">
<svg width="1351pt" height="1039pt" viewBox="0 0 1351 1039" version="1.1" xmlns="http://www.w3.org/2000/svg">
<g id="#fffffdff">
<path fill="#fffffd" opacity="1.00" d=" M 0.00 0.00 L 1351.00 0.00 L 1351.00 1039.00 L 0.00 1039.00 L 0.00 0.00 M 662.48 34.71 C 643.20 35.30 623.99 38.50 605.69 44.64 C 584.30 50.93 563.94 60.38 544.99 72.09 C 511.67 93.49 482.51 121.74 461.44 155.38 C 446.62 179.52 435.23 205.86 428.56 233.42 C 425.15 247.04 422.36 260.97 422.47 275.07 C 422.53 289.68 422.41 304.30 422.83 318.91 C 423.30 331.79 426.17 344.40 429.25 356.86 C 437.78 392.32 453.77 426.03 476.19 454.83 C 488.29 470.25 502.44 483.98 517.58 496.39 C 530.50 507.31 545.12 515.94 559.82 524.22 C 575.03 531.99 590.70 539.04 607.16 543.76 C 616.25 546.63 625.69 548.20 635.02 550.08 C 646.56 552.35 658.25 553.80 670.01 554.07 C 694.51 554.84 719.23 553.02 743.04 546.99 C 760.90 543.27 777.89 536.30 794.20 528.25 C 838.28 506.83 876.76 473.22 902.26 431.23 C 919.78 402.75 932.51 371.03 937.53 337.89 C 943.01 297.53 941.04 255.86 929.35 216.73 C 923.10 197.15 914.92 178.17 904.71 160.32 C 897.70 148.64 890.30 137.09 881.09 127.00 C 855.18 98.18 824.21 73.47 789.02 56.95 C 768.44 48.05 746.99 40.81 724.77 37.40 C 704.15 34.59 683.27 33.71 662.48 34.71 M 506.35 596.51 C 485.96 601.19 467.60 613.20 454.15 629.09 C 429.44 659.52 425.79 705.50 445.78 739.28 C 452.18 750.46 461.47 759.89 472.37 766.74 C 487.80 777.09 506.63 781.35 525.02 781.51 C 547.95 781.78 571.06 778.04 592.35 769.41 C 595.90 768.00 599.15 764.92 599.33 760.91 C 599.83 751.99 600.90 743.13 602.51 734.34 C 600.15 736.09 598.19 738.33 597.08 741.07 C 590.74 754.56 579.64 765.92 565.87 771.79 C 553.68 776.87 540.08 778.00 527.06 776.18 C 508.63 774.32 490.62 766.67 477.22 753.75 C 465.81 742.90 458.01 728.76 452.97 713.96 C 448.21 698.32 448.52 681.63 450.30 665.53 C 453.25 643.58 464.06 621.30 483.62 609.67 C 500.76 598.69 522.08 595.85 541.96 598.93 C 557.57 600.94 572.80 607.77 583.84 619.14 C 588.42 623.85 590.98 630.16 595.91 634.58 C 596.22 624.72 595.79 614.85 594.86 605.04 C 577.57 597.58 558.86 593.44 540.03 593.08 C 528.74 592.99 517.30 593.52 506.35 596.51 M 1018.50 593.63 C 1010.79 594.60 1003.20 596.50 995.89 599.12 C 971.85 607.90 952.68 628.31 944.58 652.49 C 939.93 665.76 939.18 680.04 939.89 693.98 C 940.79 709.45 944.67 724.95 952.58 738.37 C 960.24 751.04 970.99 761.90 983.95 769.16 C 1001.75 780.22 1023.54 782.90 1044.07 780.93 C 1062.17 779.33 1079.77 772.28 1093.88 760.82 C 1109.25 747.72 1120.31 729.30 1123.32 709.22 C 1126.18 688.84 1125.63 667.42 1117.89 648.12 C 1111.52 632.79 1101.11 619.08 1087.64 609.31 C 1067.88 595.04 1042.36 590.74 1018.50 593.63 M 1226.04 593.93 C 1211.80 594.99 1197.90 601.68 1188.55 612.53 C 1175.52 627.69 1175.18 652.35 1188.50 667.45 C 1200.82 679.96 1217.12 687.34 1233.15 693.89 C 1242.71 698.20 1252.77 701.55 1261.65 707.24 C 1267.43 710.94 1273.50 714.66 1277.47 720.42 C 1284.28 729.94 1286.38 742.96 1282.03 753.94 C 1279.28 761.21 1273.28 766.71 1266.88 770.82 C 1255.10 778.03 1240.58 778.59 1227.27 776.58 C 1212.22 774.40 1198.17 765.94 1189.35 753.53 C 1183.71 745.21 1180.35 735.59 1174.68 727.29 C 1174.18 738.91 1174.86 750.53 1175.88 762.11 C 1189.23 772.23 1205.40 778.09 1221.86 780.64 C 1233.25 781.94 1244.98 782.43 1256.14 779.31 C 1271.57 775.53 1285.98 765.47 1292.91 750.92 C 1298.16 739.48 1298.18 725.70 1292.75 714.32 C 1289.12 706.72 1282.98 700.57 1275.88 696.16 C 1257.86 684.71 1237.21 678.47 1218.37 668.61 C 1206.65 662.74 1194.55 653.67 1192.04 639.99 C 1190.38 629.97 1191.97 618.78 1198.92 610.97 C 1205.94 602.34 1217.16 598.41 1227.98 597.69 C 1236.88 597.18 1246.12 596.40 1254.72 599.33 C 1264.97 602.42 1273.76 609.29 1280.53 617.45 C 1284.89 622.51 1287.35 628.86 1291.60 634.01 C 1292.00 624.19 1292.30 614.26 1290.77 604.52 C 1281.22 600.24 1271.36 596.28 1260.92 594.90 C 1249.42 592.90 1237.65 593.02 1226.04 593.93 M 54.10 594.27 C 56.32 596.62 58.63 598.90 60.76 601.34 C 64.31 605.37 66.62 610.27 69.01 615.03 C 74.74 626.97 79.49 639.35 84.30 651.68 C 99.61 690.91 115.26 730.01 130.84 769.14 C 132.95 774.35 134.72 779.88 138.57 784.13 C 161.16 729.87 181.31 674.64 202.88 619.97 C 205.04 614.96 207.37 609.96 210.59 605.54 C 213.87 600.96 219.11 598.49 222.99 594.53 C 212.86 594.65 202.73 593.91 192.62 594.76 C 195.56 598.61 200.93 601.53 200.88 606.95 C 200.04 618.29 195.04 628.71 191.30 639.29 C 182.26 663.48 172.79 687.49 163.54 711.60 C 157.03 729.14 149.61 746.35 143.92 764.19 C 141.07 758.42 139.01 752.33 136.68 746.36 C 128.41 724.40 119.56 702.68 111.22 680.75 C 104.01 661.72 96.27 642.89 89.13 623.84 C 86.36 616.15 82.62 608.62 82.14 600.33 C 84.76 598.64 87.26 596.79 89.63 594.78 C 77.84 593.28 65.94 594.24 54.10 594.27 M 256.05 594.52 C 258.41 596.70 261.03 598.58 263.77 600.26 C 265.13 600.81 265.17 602.41 265.55 603.62 C 268.60 617.21 267.54 631.20 267.86 645.01 C 267.88 679.36 268.08 713.72 267.67 748.07 C 267.35 756.55 267.23 765.14 264.92 773.37 C 261.74 774.43 258.38 775.57 256.34 778.43 C 272.54 779.28 288.77 779.33 304.99 779.25 C 331.43 779.38 357.88 778.99 384.32 778.99 C 384.10 767.95 386.12 756.99 385.58 745.95 C 382.25 750.91 379.98 756.54 376.25 761.24 C 372.29 766.42 366.75 770.30 360.72 772.69 C 347.94 777.00 334.26 775.43 321.03 775.75 C 308.77 775.43 296.36 776.72 284.25 774.26 C 282.43 761.56 283.14 748.72 283.04 735.94 C 282.99 718.47 282.87 700.98 283.77 683.52 C 302.53 682.63 321.33 682.87 340.09 683.49 C 345.08 683.45 349.89 685.33 353.96 688.12 C 358.44 691.29 361.26 696.16 365.11 699.99 C 364.96 687.23 364.99 674.47 365.04 661.71 C 360.75 666.17 357.73 672.17 351.98 675.00 C 343.28 679.09 333.49 679.72 324.02 679.70 C 310.61 680.26 297.20 679.55 283.78 679.75 C 282.87 661.51 283.01 643.25 283.04 625.00 C 283.10 615.83 282.52 606.62 283.81 597.51 C 302.20 597.18 320.62 596.52 338.97 598.00 C 349.65 599.01 359.83 604.02 367.33 611.67 C 372.27 616.33 374.35 623.08 378.97 628.01 C 378.47 616.58 377.54 605.17 376.65 593.76 C 364.09 593.59 351.55 594.08 338.99 594.00 C 311.35 594.59 283.69 593.90 256.05 594.52 M 648.71 594.25 C 651.87 597.10 655.73 599.54 657.47 603.61 C 660.78 611.28 661.03 619.80 661.06 628.03 C 661.27 669.01 661.17 709.98 661.06 750.96 C 661.04 755.73 660.66 760.52 659.47 765.16 C 658.72 768.15 657.29 770.98 657.10 774.11 C 654.37 774.94 651.62 775.71 648.90 776.56 C 650.43 777.67 651.90 779.20 653.98 779.07 C 662.34 779.53 670.71 779.01 679.08 779.39 C 681.98 779.55 684.81 778.76 687.54 777.88 C 684.19 775.12 680.04 772.96 677.97 768.98 C 675.92 763.93 676.10 758.34 676.04 752.99 C 676.11 707.33 675.70 661.67 676.34 616.01 C 676.49 612.10 675.78 607.72 678.24 604.35 C 681.01 600.52 685.03 597.83 687.85 594.04 C 674.81 594.20 661.76 594.29 648.71 594.25 M 732.82 594.01 C 737.65 597.84 743.21 601.13 746.53 606.50 C 748.79 610.61 748.32 615.52 748.53 620.05 C 748.18 664.71 748.46 709.37 748.39 754.03 C 748.31 759.54 748.19 765.43 745.24 770.29 C 743.50 773.60 739.34 774.80 738.01 778.39 C 748.83 779.39 759.77 779.58 770.58 778.26 C 767.28 776.65 763.79 775.31 760.85 773.09 C 758.14 770.63 756.93 766.82 753.63 764.95 C 753.33 758.95 753.23 752.95 752.94 746.96 C 751.94 725.99 752.57 704.98 752.40 683.99 C 752.34 660.60 752.32 637.21 752.81 613.82 C 761.52 625.26 770.07 636.83 778.54 648.44 C 806.79 686.51 835.33 724.35 863.29 762.62 C 868.81 769.82 873.59 777.78 880.79 783.49 C 880.97 758.65 881.59 733.81 881.53 708.96 C 881.59 676.97 881.26 644.98 881.32 612.99 C 881.48 609.33 881.23 604.93 884.31 602.33 C 887.13 599.68 890.07 597.15 892.68 594.27 C 881.64 594.25 870.59 594.03 859.57 594.81 C 861.93 596.65 864.46 598.26 867.01 599.85 C 873.88 603.59 875.80 612.07 876.76 619.21 C 877.42 638.12 877.35 657.05 877.36 675.98 C 877.09 702.54 877.90 729.12 876.99 755.68 C 867.35 742.43 857.76 729.14 847.91 716.04 C 817.46 675.39 786.98 634.76 756.67 594.01 C 748.72 594.00 740.77 593.99 732.82 594.01 M 701.24 865.01 C 700.90 866.99 700.57 868.99 700.55 871.02 C 700.58 882.00 699.86 892.98 700.05 903.98 C 700.18 920.97 699.65 937.98 700.59 954.95 C 704.36 956.30 708.35 955.69 712.21 955.20 C 712.15 925.64 712.16 896.08 712.21 866.52 C 708.55 865.98 704.90 865.47 701.24 865.01 M 733.39 866.23 C 733.86 896.16 732.62 926.10 733.97 956.01 C 737.32 956.02 740.68 955.94 744.04 955.77 C 743.60 929.54 742.53 903.28 743.75 877.05 C 743.99 873.00 743.77 868.93 742.87 864.97 C 739.69 865.30 736.53 865.71 733.39 866.23 M 1018.59 878.58 C 1007.42 891.01 1005.07 909.06 1007.88 925.03 C 1009.30 935.67 1014.09 946.67 1023.60 952.43 C 1029.15 956.67 1036.40 956.96 1043.09 957.35 C 1052.76 957.72 1062.86 954.72 1069.75 947.68 C 1071.65 945.72 1074.46 943.14 1073.10 940.13 C 1071.69 937.44 1068.79 936.14 1066.34 934.63 C 1063.34 937.86 1061.03 941.87 1057.13 944.16 C 1051.72 947.34 1045.15 947.98 1039.02 947.25 C 1030.95 946.26 1024.38 939.84 1021.67 932.40 C 1018.69 924.29 1019.04 915.45 1019.41 906.95 C 1020.16 898.11 1022.97 887.96 1031.30 883.38 C 1042.63 876.79 1058.23 881.17 1065.32 891.96 C 1068.35 890.30 1071.34 888.55 1074.27 886.71 C 1071.86 883.52 1069.41 880.30 1066.28 877.79 C 1052.87 866.75 1031.65 867.27 1018.59 878.58 M 669.20 870.76 C 669.08 874.58 668.99 878.41 668.94 882.24 C 672.84 882.46 676.75 882.53 680.67 882.50 C 680.72 878.55 680.78 874.60 680.55 870.67 C 676.76 870.77 672.98 870.76 669.20 870.76 M 259.90 872.50 C 260.26 900.06 259.96 927.63 260.00 955.20 C 272.28 954.51 284.67 956.29 296.88 954.50 C 305.01 953.26 313.71 948.62 316.38 940.36 C 318.28 933.10 318.77 924.81 314.85 918.12 C 311.79 913.73 306.30 912.34 301.55 910.59 C 304.43 907.42 308.77 905.79 311.02 902.02 C 312.83 898.67 312.80 894.71 312.91 891.00 C 312.96 885.35 311.20 879.06 306.15 875.88 C 299.60 871.67 291.50 873.31 284.19 872.43 C 276.15 871.05 267.98 872.11 259.90 872.50 M 885.04 871.50 C 875.81 899.74 866.42 927.93 857.01 956.11 C 861.06 956.88 865.22 956.41 869.07 954.93 C 870.67 948.01 872.54 941.09 875.82 934.75 C 887.19 934.30 898.57 934.58 909.95 934.50 C 912.38 941.46 914.65 948.48 916.87 955.51 C 920.97 955.86 925.07 955.71 929.17 955.44 C 918.68 927.70 909.83 899.38 899.70 871.52 C 894.81 871.48 889.92 871.50 885.04 871.50 M 412.33 897.36 C 407.20 901.96 405.28 909.01 404.34 915.60 C 403.53 923.47 402.96 931.71 405.79 939.28 C 408.20 946.62 413.70 953.07 420.87 956.09 C 427.67 958.37 435.19 958.08 442.08 956.31 C 448.09 954.85 452.35 949.39 453.70 943.54 C 451.23 942.70 448.74 941.95 446.24 941.26 C 440.49 950.27 426.65 951.01 419.23 943.77 C 415.03 938.61 414.09 931.70 414.09 925.26 C 428.15 925.69 442.21 925.44 456.28 925.49 C 456.25 918.46 455.82 911.26 453.31 904.63 C 451.18 899.02 446.91 893.95 441.11 891.98 C 431.51 888.57 419.89 890.30 412.33 897.36 M 483.09 901.43 C 482.53 898.36 481.96 895.30 481.39 892.24 C 477.79 892.07 474.20 891.91 470.61 891.75 C 470.83 911.92 471.12 932.10 470.62 952.26 C 473.81 952.25 477.01 952.20 480.20 952.33 C 477.00 952.58 473.79 952.52 470.59 952.49 C 470.86 953.21 471.39 954.66 471.65 955.39 C 474.98 955.54 478.32 955.38 481.63 954.99 C 481.59 940.61 482.02 926.21 481.57 911.84 C 487.67 903.71 498.55 899.71 508.55 901.04 C 509.45 905.33 510.31 909.65 510.29 914.06 C 510.23 927.95 510.25 941.85 510.41 955.75 C 514.30 955.96 518.20 956.04 522.10 956.00 C 521.37 940.67 522.33 925.31 521.40 909.99 C 521.21 905.28 520.66 900.26 517.55 896.49 C 514.32 891.83 508.47 889.69 502.94 890.27 C 494.86 890.24 488.28 895.82 483.09 901.43 M 548.37 893.32 C 545.89 894.44 542.56 895.14 541.64 898.08 C 540.74 901.17 542.27 905.65 545.91 905.89 C 549.13 905.42 551.52 902.92 554.38 901.58 C 559.64 899.08 565.92 898.93 571.42 900.70 C 577.00 903.38 576.88 910.37 577.55 915.63 C 568.23 916.58 558.47 915.99 549.66 919.71 C 541.61 922.62 536.92 931.78 537.94 940.05 C 538.87 945.23 541.69 949.99 545.41 953.66 C 550.58 958.33 558.29 958.45 564.66 956.61 C 569.53 955.13 572.84 951.03 576.70 947.96 C 577.58 950.47 578.44 952.99 579.31 955.52 C 582.38 955.85 585.45 956.09 588.54 956.28 C 588.73 942.21 589.04 928.13 588.50 914.07 C 588.19 906.61 586.96 897.28 579.62 893.40 C 569.79 889.21 558.26 889.33 548.37 893.32 M 763.05 898.17 C 763.78 900.55 764.51 902.93 765.22 905.33 C 769.59 905.03 773.72 903.54 777.67 901.72 C 783.93 898.92 791.70 898.62 797.62 902.39 C 801.27 905.76 800.07 911.32 800.50 915.77 C 791.98 916.33 783.26 916.42 775.06 919.04 C 769.51 921.26 764.13 925.43 762.49 931.42 C 761.08 937.72 761.44 944.99 765.73 950.16 C 769.36 955.36 775.64 958.63 782.02 958.18 C 789.56 957.09 794.94 951.20 801.36 947.67 C 801.67 950.10 801.95 952.53 802.25 954.98 C 805.31 955.17 808.39 955.33 811.47 955.50 C 811.60 943.79 811.69 932.08 811.46 920.38 C 811.22 913.78 811.49 906.98 809.32 900.65 C 807.84 895.99 803.11 893.68 798.87 892.09 C 786.92 887.79 773.04 890.52 763.05 898.17 M 336.30 891.74 C 336.28 909.09 335.90 926.46 336.66 943.81 C 336.84 951.62 344.48 957.39 351.94 957.28 C 360.62 957.10 368.32 952.33 374.71 946.82 C 375.25 949.80 375.84 952.77 376.44 955.74 C 379.73 955.75 383.02 955.75 386.32 955.75 C 386.29 934.58 386.22 913.41 386.01 892.24 C 382.39 892.07 378.77 891.91 375.15 891.75 C 375.06 907.62 375.43 923.51 374.68 939.37 C 369.25 942.37 364.07 946.18 357.89 947.50 C 354.23 948.32 350.88 946.24 347.70 944.79 C 345.03 927.47 346.82 909.92 346.35 892.50 C 343.01 892.13 339.66 891.88 336.30 891.74 M 603.41 891.74 C 603.04 901.51 607.85 910.17 610.79 919.19 C 615.33 932.03 619.58 945.05 625.80 957.21 C 628.41 956.57 631.04 956.00 633.69 955.49 C 637.83 944.26 641.87 932.99 645.75 921.67 C 648.91 911.70 653.59 902.23 655.93 892.00 C 652.09 891.76 648.24 891.69 644.39 891.77 C 642.45 906.51 635.39 919.88 632.41 934.37 C 631.93 936.99 630.90 939.49 628.87 941.32 C 623.76 925.72 619.16 909.92 613.26 894.59 C 611.67 890.69 606.70 891.91 603.41 891.74 M 669.43 956.33 C 673.07 956.24 676.70 955.98 680.32 955.52 C 678.33 934.47 681.18 913.31 679.37 892.26 C 676.04 892.07 672.72 891.90 669.40 891.75 C 669.29 913.27 669.24 934.80 669.43 956.33 M 942.82 944.77 C 942.96 948.38 943.12 951.99 943.35 955.60 C 948.24 955.93 953.32 955.78 957.81 953.55 C 956.92 949.37 956.58 943.93 952.12 941.91 C 948.71 939.97 945.54 943.07 942.82 944.77 M 1089.48 949.75 C 1089.57 951.51 1089.42 953.86 1091.33 954.75 C 1095.35 957.35 1100.25 955.44 1104.39 954.17 C 1104.14 950.27 1102.98 946.51 1100.86 943.24 C 1098.79 943.07 1096.72 942.91 1094.68 942.72 C 1092.47 944.59 1089.36 946.46 1089.48 949.75 Z" />
<path fill="#fffffd" opacity="1.00" d=" M 647.91 49.37 C 667.54 47.51 687.38 46.25 707.04 48.43 C 731.06 50.74 754.95 56.05 777.09 65.79 C 795.65 74.00 813.13 84.53 829.55 96.41 C 842.01 106.16 853.88 116.74 864.18 128.78 C 874.64 141.15 884.97 153.72 893.28 167.67 C 904.92 186.75 913.71 207.54 919.67 229.07 C 923.84 247.13 927.40 265.42 928.52 283.95 C 929.93 303.56 927.30 323.21 923.62 342.44 C 916.89 375.85 903.58 408.03 883.84 435.87 C 876.34 445.88 868.25 455.47 859.38 464.30 C 838.63 485.23 815.08 503.81 788.17 516.14 C 768.61 525.06 748.34 532.91 727.08 536.56 C 714.30 538.50 701.45 541.03 688.46 540.03 C 688.53 504.44 688.41 468.84 688.57 433.24 C 695.91 431.23 703.55 431.07 711.00 429.67 C 724.17 427.83 736.56 422.75 748.90 418.04 C 781.35 404.82 807.76 379.56 826.03 350.00 C 841.38 324.77 850.23 295.55 850.99 266.00 C 851.16 262.67 850.30 259.43 849.40 256.26 C 830.35 256.12 810.95 257.28 792.86 263.75 C 784.12 266.37 776.22 270.99 767.96 274.73 C 767.57 241.09 768.43 207.44 767.67 173.80 C 764.02 173.93 760.20 174.04 756.97 175.98 C 741.95 184.26 728.94 195.80 717.73 208.71 C 706.18 221.45 696.46 235.95 689.83 251.84 C 686.66 258.68 685.56 266.35 681.48 272.78 C 675.18 254.12 666.85 235.87 654.41 220.46 C 641.45 203.56 626.00 188.39 608.00 176.91 C 604.53 174.60 600.28 174.19 596.29 173.48 C 593.85 185.18 595.37 197.16 595.09 208.99 C 594.51 230.82 595.26 252.67 594.33 274.49 C 584.83 269.58 574.80 265.75 564.60 262.59 C 548.91 258.81 532.75 254.79 516.52 256.81 C 513.88 256.83 512.96 259.68 512.94 261.88 C 512.09 298.38 523.75 335.11 545.75 364.26 C 558.99 381.29 574.86 396.41 593.19 407.86 C 605.47 414.91 618.63 420.37 632.13 424.59 C 646.22 428.83 660.83 430.88 675.42 432.52 C 675.56 468.43 675.57 504.35 675.44 540.27 C 634.75 540.51 595.19 527.36 559.56 508.46 C 542.31 498.69 526.43 486.62 512.12 472.93 C 500.52 461.83 489.25 450.23 479.86 437.17 C 440.55 382.78 425.57 311.60 439.18 245.94 C 444.98 219.15 454.16 192.85 468.48 169.38 C 479.71 150.87 493.18 133.74 508.32 118.27 C 520.98 105.79 534.56 94.04 549.84 84.85 C 579.54 66.33 613.14 53.79 647.91 49.37 M 673.36 137.59 C 657.54 141.35 647.77 160.47 653.66 175.54 C 656.52 183.21 662.60 189.51 669.96 193.00 C 682.11 198.30 697.59 194.01 705.10 183.04 C 710.73 174.67 712.01 163.46 707.94 154.17 C 702.58 141.20 686.86 133.55 673.36 137.59 Z" />
<path fill="#fffffd" opacity="1.00" d=" M 676.35 150.48 C 684.87 147.84 695.18 152.80 697.61 161.55 C 699.60 171.02 691.69 181.28 681.94 181.47 C 675.76 181.58 668.93 178.53 666.42 172.55 C 662.18 164.20 667.53 153.07 676.35 150.48 Z" />
<path fill="#fffffd" opacity="1.00" d=" M 606.98 190.43 C 610.57 195.42 616.13 198.28 620.68 202.25 C 648.71 226.13 666.75 260.69 672.58 296.87 C 676.17 318.26 675.86 340.05 675.31 361.66 C 666.05 337.81 650.25 316.79 631.35 299.69 C 624.46 293.27 616.35 288.40 608.97 282.59 C 607.53 272.12 608.11 261.52 608.29 250.99 C 608.62 237.38 608.52 223.76 607.85 210.16 C 607.49 203.58 608.10 196.96 606.98 190.43 Z" />
<path fill="#fffffd" opacity="1.00" d=" M 739.01 206.07 C 744.27 201.76 748.91 196.43 755.34 193.79 C 755.39 222.77 755.30 251.76 755.25 280.74 C 746.75 287.38 738.16 293.91 729.95 300.91 C 717.83 311.97 707.00 324.58 699.15 339.06 C 695.07 345.23 692.82 352.70 687.31 357.84 C 688.08 340.16 688.18 322.43 689.81 304.80 C 691.21 283.62 698.56 263.23 708.47 244.61 C 716.12 229.99 726.61 216.93 739.01 206.07 Z" />
<path fill="#fffffd" opacity="1.00" d=" M 525.73 270.51 C 556.56 272.46 586.79 283.17 611.93 301.13 C 626.67 311.88 639.19 325.51 649.55 340.46 C 664.25 363.49 673.68 390.47 673.17 418.01 C 657.01 417.98 641.22 413.56 626.27 407.75 C 598.10 397.90 574.63 377.99 555.48 355.57 C 537.14 331.20 526.60 301.00 525.73 270.51 Z" />
<path fill="#fffffd" opacity="1.00" d=" M 818.78 272.78 C 824.89 271.79 831.06 271.30 837.16 270.27 C 836.71 300.25 825.36 329.14 808.90 353.87 C 798.83 367.34 786.09 378.61 772.54 388.48 C 758.98 399.06 743.43 407.11 726.84 411.69 C 714.47 415.58 701.56 417.27 688.75 418.99 C 689.00 399.30 693.91 379.86 701.95 361.94 C 708.64 346.14 719.07 332.22 730.64 319.67 C 753.68 294.72 785.36 278.32 818.78 272.78 Z" />
<path fill="#fffffd" opacity="1.00" d=" M 1009.49 598.77 C 1019.55 597.30 1030.00 596.80 1039.93 599.39 C 1059.18 604.01 1076.64 615.76 1088.27 631.79 C 1099.12 645.64 1105.86 662.37 1109.27 679.55 C 1112.79 698.94 1111.97 719.64 1103.91 737.85 C 1096.98 754.54 1082.10 767.54 1064.87 772.78 C 1053.67 776.25 1041.74 777.19 1030.08 776.16 C 1018.00 774.40 1006.10 770.09 996.45 762.47 C 982.25 752.52 971.72 738.17 964.28 722.67 C 951.58 694.39 949.54 660.40 962.88 631.97 C 972.05 614.41 990.10 602.13 1009.49 598.77 Z" />
<path fill="#fffffd" opacity="1.00" d=" M 880.31 923.49 C 882.33 908.12 889.83 894.27 893.38 879.29 C 894.92 889.08 898.32 898.41 900.93 907.94 C 902.36 913.12 903.85 918.28 905.45 923.42 C 897.07 923.03 888.69 923.75 880.31 923.49 Z" />
<path fill="#fffffd" opacity="1.00" d=" M 270.99 882.24 C 277.66 882.46 284.34 882.51 291.02 882.77 C 294.38 882.76 297.26 884.66 300.12 886.18 C 300.30 890.43 300.71 894.71 300.27 898.97 C 300.31 902.90 296.03 904.57 292.92 905.67 C 285.81 907.15 278.37 905.42 271.35 907.72 C 270.84 899.25 269.86 890.71 270.99 882.24 Z" />
<path fill="#fffffd" opacity="1.00" d=" M 419.18 904.15 C 423.76 898.53 432.56 897.94 438.64 901.31 C 444.31 905.35 445.04 912.76 447.08 918.88 C 444.24 916.30 440.42 917.79 437.04 917.70 C 429.48 917.74 421.91 917.87 414.37 918.49 C 415.29 913.56 415.80 908.13 419.18 904.15 Z" />
<path fill="#fffffd" opacity="1.00" d=" M 270.25 917.50 C 281.14 916.60 292.23 916.59 302.92 919.15 C 305.19 923.07 307.16 927.43 306.79 932.08 C 306.57 937.70 302.60 943.19 296.93 944.31 C 288.57 946.10 279.92 945.84 271.42 946.00 C 270.18 936.55 270.31 927.00 270.25 917.50 Z" />
<path fill="#fffffd" opacity="1.00" d=" M 551.76 929.87 C 558.56 926.32 566.14 923.72 573.90 923.85 C 575.42 923.71 575.97 925.50 576.53 926.59 C 577.92 930.89 577.01 935.49 576.74 939.91 C 571.72 943.22 566.89 947.36 560.83 948.57 C 556.50 949.61 551.86 946.76 550.49 942.61 C 549.02 938.50 549.25 933.52 551.76 929.87 Z" />
<path fill="#fffffd" opacity="1.00" d=" M 776.95 929.03 C 783.63 923.94 792.55 924.87 800.42 923.74 C 801.40 928.95 802.51 934.82 799.77 939.70 C 795.54 944.43 789.52 948.32 782.95 948.04 C 779.38 948.01 775.77 946.32 773.62 943.47 C 770.84 938.72 772.47 932.15 776.95 929.03 Z" />
</g>
<g id="#ef6b4cff">
<path fill="#ef6b4c" opacity="1.00" d=" M 662.48 34.71 C 683.27 33.71 704.15 34.59 724.77 37.40 C 746.99 40.81 768.44 48.05 789.02 56.95 C 824.21 73.47 855.18 98.18 881.09 127.00 C 890.30 137.09 897.70 148.64 904.71 160.32 C 914.92 178.17 923.10 197.15 929.35 216.73 C 941.04 255.86 943.01 297.53 937.53 337.89 C 932.51 371.03 919.78 402.75 902.26 431.23 C 876.76 473.22 838.28 506.83 794.20 528.25 C 777.89 536.30 760.90 543.27 743.04 546.99 C 719.23 553.02 694.51 554.84 670.01 554.07 C 658.25 553.80 646.56 552.35 635.02 550.08 C 625.69 548.20 616.25 546.63 607.16 543.76 C 590.70 539.04 575.03 531.99 559.82 524.22 C 545.12 515.94 530.50 507.31 517.58 496.39 C 502.44 483.98 488.29 470.25 476.19 454.83 C 453.77 426.03 437.78 392.32 429.25 356.86 C 426.17 344.40 423.30 331.79 422.83 318.91 C 422.41 304.30 422.53 289.68 422.47 275.07 C 422.36 260.97 425.15 247.04 428.56 233.42 C 435.23 205.86 446.62 179.52 461.44 155.38 C 482.51 121.74 511.67 93.49 544.99 72.09 C 563.94 60.38 584.30 50.93 605.69 44.64 C 623.99 38.50 643.20 35.30 662.48 34.71 M 647.91 49.37 C 613.14 53.79 579.54 66.33 549.84 84.85 C 534.56 94.04 520.98 105.79 508.32 118.27 C 493.18 133.74 479.71 150.87 468.48 169.38 C 454.16 192.85 444.98 219.15 439.18 245.94 C 425.57 311.60 440.55 382.78 479.86 437.17 C 489.25 450.23 500.52 461.83 512.12 472.93 C 526.43 486.62 542.31 498.69 559.56 508.46 C 595.19 527.36 634.75 540.51 675.44 540.27 C 675.57 504.35 675.56 468.43 675.42 432.52 C 660.83 430.88 646.22 428.83 632.13 424.59 C 618.63 420.37 605.47 414.91 593.19 407.86 C 574.86 396.41 558.99 381.29 545.75 364.26 C 523.75 335.11 512.09 298.38 512.94 261.88 C 512.96 259.68 513.88 256.83 516.52 256.81 C 532.75 254.79 548.91 258.81 564.60 262.59 C 574.80 265.75 584.83 269.58 594.33 274.49 C 595.26 252.67 594.51 230.82 595.09 208.99 C 595.37 197.16 593.85 185.18 596.29 173.48 C 600.28 174.19 604.53 174.60 608.00 176.91 C 626.00 188.39 641.45 203.56 654.41 220.46 C 666.85 235.87 675.18 254.12 681.48 272.78 C 685.56 266.35 686.66 258.68 689.83 251.84 C 696.46 235.95 706.18 221.45 717.73 208.71 C 728.94 195.80 741.95 184.26 756.97 175.98 C 760.20 174.04 764.02 173.93 767.67 173.80 C 768.43 207.44 767.57 241.09 767.96 274.73 C 776.22 270.99 784.12 266.37 792.86 263.75 C 810.95 257.28 830.35 256.12 849.40 256.26 C 850.30 259.43 851.16 262.67 850.99 266.00 C 850.23 295.55 841.38 324.77 826.03 350.00 C 807.76 379.56 781.35 404.82 748.90 418.04 C 736.56 422.75 724.17 427.83 711.00 429.67 C 703.55 431.07 695.91 431.23 688.57 433.24 C 688.41 468.84 688.53 504.44 688.46 540.03 C 701.45 541.03 714.30 538.50 727.08 536.56 C 748.34 532.91 768.61 525.06 788.17 516.14 C 815.08 503.81 838.63 485.23 859.38 464.30 C 868.25 455.47 876.34 445.88 883.84 435.87 C 903.58 408.03 916.89 375.85 923.62 342.44 C 927.30 323.21 929.93 303.56 928.52 283.95 C 927.40 265.42 923.84 247.13 919.67 229.07 C 913.71 207.54 904.92 186.75 893.28 167.67 C 884.97 153.72 874.64 141.15 864.18 128.78 C 853.88 116.74 842.01 106.16 829.55 96.41 C 813.13 84.53 795.65 74.00 777.09 65.79 C 754.95 56.05 731.06 50.74 707.04 48.43 C 687.38 46.25 667.54 47.51 647.91 49.37 M 606.98 190.43 C 608.10 196.96 607.49 203.58 607.85 210.16 C 608.52 223.76 608.62 237.38 608.29 250.99 C 608.11 261.52 607.53 272.12 608.97 282.59 C 616.35 288.40 624.46 293.27 631.35 299.69 C 650.25 316.79 666.05 337.81 675.31 361.66 C 675.86 340.05 676.17 318.26 672.58 296.87 C 666.75 260.69 648.71 226.13 620.68 202.25 C 616.13 198.28 610.57 195.42 606.98 190.43 M 739.01 206.07 C 726.61 216.93 716.12 229.99 708.47 244.61 C 698.56 263.23 691.21 283.62 689.81 304.80 C 688.18 322.43 688.08 340.16 687.31 357.84 C 692.82 352.70 695.07 345.23 699.15 339.06 C 707.00 324.58 717.83 311.97 729.95 300.91 C 738.16 293.91 746.75 287.38 755.25 280.74 C 755.30 251.76 755.39 222.77 755.34 193.79 C 748.91 196.43 744.27 201.76 739.01 206.07 M 525.73 270.51 C 526.60 301.00 537.14 331.20 555.48 355.57 C 574.63 377.99 598.10 397.90 626.27 407.75 C 641.22 413.56 657.01 417.98 673.17 418.01 C 673.68 390.47 664.25 363.49 649.55 340.46 C 639.19 325.51 626.67 311.88 611.93 301.13 C 586.79 283.17 556.56 272.46 525.73 270.51 M 818.78 272.78 C 785.36 278.32 753.68 294.72 730.64 319.67 C 719.07 332.22 708.64 346.14 701.95 361.94 C 693.91 379.86 689.00 399.30 688.75 418.99 C 701.56 417.27 714.47 415.58 726.84 411.69 C 743.43 407.11 758.98 399.06 772.54 388.48 C 786.09 378.61 798.83 367.34 808.90 353.87 C 825.36 329.14 836.71 300.25 837.16 270.27 C 831.06 271.30 824.89 271.79 818.78 272.78 Z" />
<path fill="#ef6b4c" opacity="1.00" d=" M 673.36 137.59 C 686.86 133.55 702.58 141.20 707.94 154.17 C 712.01 163.46 710.73 174.67 705.10 183.04 C 697.59 194.01 682.11 198.30 669.96 193.00 C 662.60 189.51 656.52 183.21 653.66 175.54 C 647.77 160.47 657.54 141.35 673.36 137.59 M 676.35 150.48 C 667.53 153.07 662.18 164.20 666.42 172.55 C 668.93 178.53 675.76 181.58 681.94 181.47 C 691.69 181.28 699.60 171.02 697.61 161.55 C 695.18 152.80 684.87 147.84 676.35 150.48 Z" />
<path fill="#ef6b4c" opacity="1.00" d=" M 701.24 865.01 C 704.90 865.47 708.55 865.98 712.21 866.52 C 712.16 896.08 712.15 925.64 712.21 955.20 C 708.35 955.69 704.36 956.30 700.59 954.95 C 699.65 937.98 700.18 920.97 700.05 903.98 C 699.86 892.98 700.58 882.00 700.55 871.02 C 700.57 868.99 700.90 866.99 701.24 865.01 Z" />
<path fill="#ef6b4c" opacity="1.00" d=" M 733.39 866.23 C 736.53 865.71 739.69 865.30 742.87 864.97 C 743.77 868.93 743.99 873.00 743.75 877.05 C 742.53 903.28 743.60 929.54 744.04 955.77 C 740.68 955.94 737.32 956.02 733.97 956.01 C 732.62 926.10 733.86 896.16 733.39 866.23 Z" />
<path fill="#ef6b4c" opacity="1.00" d=" M 1018.59 878.58 C 1031.65 867.27 1052.87 866.75 1066.28 877.79 C 1069.41 880.30 1071.86 883.52 1074.27 886.71 C 1071.34 888.55 1068.35 890.30 1065.32 891.96 C 1058.23 881.17 1042.63 876.79 1031.30 883.38 C 1022.97 887.96 1020.16 898.11 1019.41 906.95 C 1019.04 915.45 1018.69 924.29 1021.67 932.40 C 1024.38 939.84 1030.95 946.26 1039.02 947.25 C 1045.15 947.98 1051.72 947.34 1057.13 944.16 C 1061.03 941.87 1063.34 937.86 1066.34 934.63 C 1068.79 936.14 1071.69 937.44 1073.10 940.13 C 1074.46 943.14 1071.65 945.72 1069.75 947.68 C 1062.86 954.72 1052.76 957.72 1043.09 957.35 C 1036.40 956.96 1029.15 956.67 1023.60 952.43 C 1014.09 946.67 1009.30 935.67 1007.88 925.03 C 1005.07 909.06 1007.42 891.01 1018.59 878.58 Z" />
<path fill="#ef6b4c" opacity="1.00" d=" M 669.20 870.76 C 672.98 870.76 676.76 870.77 680.55 870.67 C 680.78 874.60 680.72 878.55 680.67 882.50 C 676.75 882.53 672.84 882.46 668.94 882.24 C 668.99 878.41 669.08 874.58 669.20 870.76 Z" />
<path fill="#ef6b4c" opacity="1.00" d=" M 259.90 872.50 C 267.98 872.11 276.15 871.05 284.19 872.43 C 291.50 873.31 299.60 871.67 306.15 875.88 C 311.20 879.06 312.96 885.35 312.91 891.00 C 312.80 894.71 312.83 898.67 311.02 902.02 C 308.77 905.79 304.43 907.42 301.55 910.59 C 306.30 912.34 311.79 913.73 314.85 918.12 C 318.77 924.81 318.28 933.10 316.38 940.36 C 313.71 948.62 305.01 953.26 296.88 954.50 C 284.67 956.29 272.28 954.51 260.00 955.20 C 259.96 927.63 260.26 900.06 259.90 872.50 M 270.99 882.24 C 269.86 890.71 270.84 899.25 271.35 907.72 C 278.37 905.42 285.81 907.15 292.92 905.67 C 296.03 904.57 300.31 902.90 300.27 898.97 C 300.71 894.71 300.30 890.43 300.12 886.18 C 297.26 884.66 294.38 882.76 291.02 882.77 C 284.34 882.51 277.66 882.46 270.99 882.24 M 270.25 917.50 C 270.31 927.00 270.18 936.55 271.42 946.00 C 279.92 945.84 288.57 946.10 296.93 944.31 C 302.60 943.19 306.57 937.70 306.79 932.08 C 307.16 927.43 305.19 923.07 302.92 919.15 C 292.23 916.59 281.14 916.60 270.25 917.50 Z" />
<path fill="#ef6b4c" opacity="1.00" d=" M 885.04 871.50 C 889.92 871.50 894.81 871.48 899.70 871.52 C 909.83 899.38 918.68 927.70 929.17 955.44 C 925.07 955.71 920.97 955.86 916.87 955.51 C 914.65 948.48 912.38 941.46 909.95 934.50 C 898.57 934.58 887.19 934.30 875.82 934.75 C 872.54 941.09 870.67 948.01 869.07 954.93 C 865.22 956.41 861.06 956.88 857.01 956.11 C 866.42 927.93 875.81 899.74 885.04 871.50 M 880.31 923.49 C 888.69 923.75 897.07 923.03 905.45 923.42 C 903.85 918.28 902.36 913.12 900.93 907.94 C 898.32 898.41 894.92 889.08 893.38 879.29 C 889.83 894.27 882.33 908.12 880.31 923.49 Z" />
<path fill="#ef6b4c" opacity="1.00" d=" M 412.33 897.36 C 419.89 890.30 431.51 888.57 441.11 891.98 C 446.91 893.95 451.18 899.02 453.31 904.63 C 455.82 911.26 456.25 918.46 456.28 925.49 C 442.21 925.44 428.15 925.69 414.09 925.26 C 414.09 931.70 415.03 938.61 419.23 943.77 C 426.65 951.01 440.49 950.27 446.24 941.26 C 448.74 941.95 451.23 942.70 453.70 943.54 C 452.35 949.39 448.09 954.85 442.08 956.31 C 435.19 958.08 427.67 958.37 420.87 956.09 C 413.70 953.07 408.20 946.62 405.79 939.28 C 402.96 931.71 403.53 923.47 404.34 915.60 C 405.28 909.01 407.20 901.96 412.33 897.36 M 419.18 904.15 C 415.80 908.13 415.29 913.56 414.37 918.49 C 421.91 917.87 429.48 917.74 437.04 917.70 C 440.42 917.79 444.24 916.30 447.08 918.88 C 445.04 912.76 444.31 905.35 438.64 901.31 C 432.56 897.94 423.76 898.53 419.18 904.15 Z" />
<path fill="#ef6b4c" opacity="1.00" d=" M 483.09 901.43 C 488.28 895.82 494.86 890.24 502.94 890.27 C 508.47 889.69 514.32 891.83 517.55 896.49 C 520.66 900.26 521.21 905.28 521.40 909.99 C 522.33 925.31 521.37 940.67 522.10 956.00 C 518.20 956.04 514.30 955.96 510.41 955.75 C 510.25 941.85 510.23 927.95 510.29 914.06 C 510.31 909.65 509.45 905.33 508.55 901.04 C 498.55 899.71 487.67 903.71 481.57 911.84 C 479.76 917.38 480.14 923.27 480.18 929.01 C 480.32 936.78 480.15 944.55 480.20 952.33 C 477.01 952.20 473.81 952.25 470.62 952.26 C 471.12 932.10 470.83 911.92 470.61 891.75 C 474.20 891.91 477.79 892.07 481.39 892.24 C 481.96 895.30 482.53 898.36 483.09 901.43 Z" />
<path fill="#ef6b4c" opacity="1.00" d=" M 548.37 893.32 C 558.26 889.33 569.79 889.21 579.62 893.40 C 586.96 897.28 588.19 906.61 588.50 914.07 C 589.04 928.13 588.73 942.21 588.54 956.28 C 585.45 956.09 582.38 955.85 579.31 955.52 C 578.44 952.99 577.58 950.47 576.70 947.96 C 572.84 951.03 569.53 955.13 564.66 956.61 C 558.29 958.45 550.58 958.33 545.41 953.66 C 541.69 949.99 538.87 945.23 537.94 940.05 C 536.92 931.78 541.61 922.62 549.66 919.71 C 558.47 915.99 568.23 916.58 577.55 915.63 C 576.88 910.37 577.00 903.38 571.42 900.70 C 565.92 898.93 559.64 899.08 554.38 901.58 C 551.52 902.92 549.13 905.42 545.91 905.89 C 542.27 905.65 540.74 901.17 541.64 898.08 C 542.56 895.14 545.89 894.44 548.37 893.32 M 551.76 929.87 C 549.25 933.52 549.02 938.50 550.49 942.61 C 551.86 946.76 556.50 949.61 560.83 948.57 C 566.89 947.36 571.72 943.22 576.74 939.91 C 577.01 935.49 577.92 930.89 576.53 926.59 C 575.97 925.50 575.42 923.71 573.90 923.85 C 566.14 923.72 558.56 926.32 551.76 929.87 Z" />
<path fill="#ef6b4c" opacity="1.00" d=" M 763.05 898.17 C 773.04 890.52 786.92 887.79 798.87 892.09 C 803.11 893.68 807.84 895.99 809.32 900.65 C 811.49 906.98 811.22 913.78 811.46 920.38 C 811.69 932.08 811.60 943.79 811.47 955.50 C 808.39 955.33 805.31 955.17 802.25 954.98 C 801.95 952.53 801.67 950.10 801.36 947.67 C 794.94 951.20 789.56 957.09 782.02 958.18 C 775.64 958.63 769.36 955.36 765.73 950.16 C 761.44 944.99 761.08 937.72 762.49 931.42 C 764.13 925.43 769.51 921.26 775.06 919.04 C 783.26 916.42 791.98 916.33 800.50 915.77 C 800.07 911.32 801.27 905.76 797.62 902.39 C 791.70 898.62 783.93 898.92 777.67 901.72 C 773.72 903.54 769.59 905.03 765.22 905.33 C 764.51 902.93 763.78 900.55 763.05 898.17 M 776.95 929.03 C 772.47 932.15 770.84 938.72 773.62 943.47 C 775.77 946.32 779.38 948.01 782.95 948.04 C 789.52 948.32 795.54 944.43 799.77 939.70 C 802.51 934.82 801.40 928.95 800.42 923.74 C 792.55 924.87 783.63 923.94 776.95 929.03 Z" />
<path fill="#ef6b4c" opacity="1.00" d=" M 336.30 891.74 C 339.66 891.88 343.01 892.13 346.35 892.50 C 346.82 909.92 345.03 927.47 347.70 944.79 C 350.88 946.24 354.23 948.32 357.89 947.50 C 364.07 946.18 369.25 942.37 374.68 939.37 C 375.43 923.51 375.06 907.62 375.15 891.75 C 378.77 891.91 382.39 892.07 386.01 892.24 C 386.22 913.41 386.29 934.58 386.32 955.75 C 383.02 955.75 379.73 955.75 376.44 955.74 C 375.84 952.77 375.25 949.80 374.71 946.82 C 368.32 952.33 360.62 957.10 351.94 957.28 C 344.48 957.39 336.84 951.62 336.66 943.81 C 335.90 926.46 336.28 909.09 336.30 891.74 Z" />
<path fill="#ef6b4c" opacity="1.00" d=" M 603.41 891.74 C 606.70 891.91 611.67 890.69 613.26 894.59 C 619.16 909.92 623.76 925.72 628.87 941.32 C 630.90 939.49 631.93 936.99 632.41 934.37 C 635.39 919.88 642.45 906.51 644.39 891.77 C 648.24 891.69 652.09 891.76 655.93 892.00 C 653.59 902.23 648.91 911.70 645.75 921.67 C 641.87 932.99 637.83 944.26 633.69 955.49 C 631.04 956.00 628.41 956.57 625.80 957.21 C 619.58 945.05 615.33 932.03 610.79 919.19 C 607.85 910.17 603.04 901.51 603.41 891.74 Z" />
<path fill="#ef6b4c" opacity="1.00" d=" M 669.43 956.33 C 669.24 934.80 669.29 913.27 669.40 891.75 C 672.72 891.90 676.04 892.07 679.37 892.26 C 681.18 913.31 678.33 934.47 680.32 955.52 C 676.70 955.98 673.07 956.24 669.43 956.33 Z" />
<path fill="#ef6b4c" opacity="1.00" d=" M 942.82 944.77 C 945.54 943.07 948.71 939.97 952.12 941.91 C 956.58 943.93 956.92 949.37 957.81 953.55 C 953.32 955.78 948.24 955.93 943.35 955.60 C 943.12 951.99 942.96 948.38 942.82 944.77 Z" />
<path fill="#ef6b4c" opacity="1.00" d=" M 1089.48 949.75 C 1089.36 946.46 1092.47 944.59 1094.68 942.72 C 1096.72 942.91 1098.79 943.07 1100.86 943.24 C 1102.98 946.51 1104.14 950.27 1104.39 954.17 C 1100.25 955.44 1095.35 957.35 1091.33 954.75 C 1089.42 953.86 1089.57 951.51 1089.48 949.75 Z" />
</g>
<g id="#6f6c6aff">
<path fill="#6f6c6a" opacity="1.00" d=" M 506.35 596.51 C 517.30 593.52 528.74 592.99 540.03 593.08 C 558.86 593.44 577.57 597.58 594.86 605.04 C 595.79 614.85 596.22 624.72 595.91 634.58 C 590.98 630.16 588.42 623.85 583.84 619.14 C 572.80 607.77 557.57 600.94 541.96 598.93 C 522.08 595.85 500.76 598.69 483.62 609.67 C 464.06 621.30 453.25 643.58 450.30 665.53 C 448.52 681.63 448.21 698.32 452.97 713.96 C 458.01 728.76 465.81 742.90 477.22 753.75 C 490.62 766.67 508.63 774.32 527.06 776.18 C 540.08 778.00 553.68 776.87 565.87 771.79 C 579.64 765.92 590.74 754.56 597.08 741.07 C 598.19 738.33 600.15 736.09 602.51 734.34 C 600.90 743.13 599.83 751.99 599.33 760.91 C 599.15 764.92 595.90 768.00 592.35 769.41 C 571.06 778.04 547.95 781.78 525.02 781.51 C 506.63 781.35 487.80 777.09 472.37 766.74 C 461.47 759.89 452.18 750.46 445.78 739.28 C 425.79 705.50 429.44 659.52 454.15 629.09 C 467.60 613.20 485.96 601.19 506.35 596.51 Z" />
<path fill="#6f6c6a" opacity="1.00" d=" M 1018.50 593.63 C 1042.36 590.74 1067.88 595.04 1087.64 609.31 C 1101.11 619.08 1111.52 632.79 1117.89 648.12 C 1125.63 667.42 1126.18 688.84 1123.32 709.22 C 1120.31 729.30 1109.25 747.72 1093.88 760.82 C 1079.77 772.28 1062.17 779.33 1044.07 780.93 C 1023.54 782.90 1001.75 780.22 983.95 769.16 C 970.99 761.90 960.24 751.04 952.58 738.37 C 944.67 724.95 940.79 709.45 939.89 693.98 C 939.18 680.04 939.93 665.76 944.58 652.49 C 952.68 628.31 971.85 607.90 995.89 599.12 C 1003.20 596.50 1010.79 594.60 1018.50 593.63 M 1009.49 598.77 C 990.10 602.13 972.05 614.41 962.88 631.97 C 949.54 660.40 951.58 694.39 964.28 722.67 C 971.72 738.17 982.25 752.52 996.45 762.47 C 1006.10 770.09 1018.00 774.40 1030.08 776.16 C 1041.74 777.19 1053.67 776.25 1064.87 772.78 C 1082.10 767.54 1096.98 754.54 1103.91 737.85 C 1111.97 719.64 1112.79 698.94 1109.27 679.55 C 1105.86 662.37 1099.12 645.64 1088.27 631.79 C 1076.64 615.76 1059.18 604.01 1039.93 599.39 C 1030.00 596.80 1019.55 597.30 1009.49 598.77 Z" />
<path fill="#6f6c6a" opacity="1.00" d=" M 1226.04 593.93 C 1237.65 593.02 1249.42 592.90 1260.92 594.90 C 1271.36 596.28 1281.22 600.24 1290.77 604.52 C 1292.30 614.26 1292.00 624.19 1291.60 634.01 C 1287.35 628.86 1284.89 622.51 1280.53 617.45 C 1273.76 609.29 1264.97 602.42 1254.72 599.33 C 1246.12 596.40 1236.88 597.18 1227.98 597.69 C 1217.16 598.41 1205.94 602.34 1198.92 610.97 C 1191.97 618.78 1190.38 629.97 1192.04 639.99 C 1194.55 653.67 1206.65 662.74 1218.37 668.61 C 1237.21 678.47 1257.86 684.71 1275.88 696.16 C 1282.98 700.57 1289.12 706.72 1292.75 714.32 C 1298.18 725.70 1298.16 739.48 1292.91 750.92 C 1285.98 765.47 1271.57 775.53 1256.14 779.31 C 1244.98 782.43 1233.25 781.94 1221.86 780.64 C 1205.40 778.09 1189.23 772.23 1175.88 762.11 C 1174.86 750.53 1174.18 738.91 1174.68 727.29 C 1180.35 735.59 1183.71 745.21 1189.35 753.53 C 1198.17 765.94 1212.22 774.40 1227.27 776.58 C 1240.58 778.59 1255.10 778.03 1266.88 770.82 C 1273.28 766.71 1279.28 761.21 1282.03 753.94 C 1286.38 742.96 1284.28 729.94 1277.47 720.42 C 1273.50 714.66 1267.43 710.94 1261.65 707.24 C 1252.77 701.55 1242.71 698.20 1233.15 693.89 C 1217.12 687.34 1200.82 679.96 1188.50 667.45 C 1175.18 652.35 1175.52 627.69 1188.55 612.53 C 1197.90 601.68 1211.80 594.99 1226.04 593.93 Z" />
<path fill="#6f6c6a" opacity="1.00" d=" M 54.10 594.27 C 65.94 594.24 77.84 593.28 89.63 594.78 C 87.26 596.79 84.76 598.64 82.14 600.33 C 82.62 608.62 86.36 616.15 89.13 623.84 C 96.27 642.89 104.01 661.72 111.22 680.75 C 119.56 702.68 128.41 724.40 136.68 746.36 C 139.01 752.33 141.07 758.42 143.92 764.19 C 149.61 746.35 157.03 729.14 163.54 711.60 C 172.79 687.49 182.26 663.48 191.30 639.29 C 195.04 628.71 200.04 618.29 200.88 606.95 C 200.93 601.53 195.56 598.61 192.62 594.76 C 202.73 593.91 212.86 594.65 222.99 594.53 C 219.11 598.49 213.87 600.96 210.59 605.54 C 207.37 609.96 205.04 614.96 202.88 619.97 C 181.31 674.64 161.16 729.87 138.57 784.13 C 134.72 779.88 132.95 774.35 130.84 769.14 C 115.26 730.01 99.61 690.91 84.30 651.68 C 79.49 639.35 74.74 626.97 69.01 615.03 C 66.62 610.27 64.31 605.37 60.76 601.34 C 58.63 598.90 56.32 596.62 54.10 594.27 Z" />
<path fill="#6f6c6a" opacity="1.00" d=" M 256.05 594.52 C 283.69 593.90 311.35 594.59 338.99 594.00 C 351.55 594.08 364.09 593.59 376.65 593.76 C 377.54 605.17 378.47 616.58 378.97 628.01 C 374.35 623.08 372.27 616.33 367.33 611.67 C 359.83 604.02 349.65 599.01 338.97 598.00 C 320.62 596.52 302.20 597.18 283.81 597.51 C 282.52 606.62 283.10 615.83 283.04 625.00 C 283.01 643.25 282.87 661.51 283.78 679.75 C 297.20 679.55 310.61 680.26 324.02 679.70 C 333.49 679.72 343.28 679.09 351.98 675.00 C 357.73 672.17 360.75 666.17 365.04 661.71 C 364.99 674.47 364.96 687.23 365.11 699.99 C 361.26 696.16 358.44 691.29 353.96 688.12 C 349.89 685.33 345.08 683.45 340.09 683.49 C 321.33 682.87 302.53 682.63 283.77 683.52 C 282.87 700.98 282.99 718.47 283.04 735.94 C 283.14 748.72 282.43 761.56 284.25 774.26 C 296.36 776.72 308.77 775.43 321.03 775.75 C 334.26 775.43 347.94 777.00 360.72 772.69 C 366.75 770.30 372.29 766.42 376.25 761.24 C 379.98 756.54 382.25 750.91 385.58 745.95 C 386.12 756.99 384.10 767.95 384.32 778.99 C 357.88 778.99 331.43 779.38 304.99 779.25 C 288.77 779.33 272.54 779.28 256.34 778.43 C 258.38 775.57 261.74 774.43 264.92 773.37 C 267.23 765.14 267.35 756.55 267.67 748.07 C 268.08 713.72 267.88 679.36 267.86 645.01 C 267.54 631.20 268.60 617.21 265.55 603.62 C 265.17 602.41 265.13 600.81 263.77 600.26 C 261.03 598.58 258.41 596.70 256.05 594.52 Z" />
<path fill="#6f6c6a" opacity="1.00" d=" M 648.71 594.25 C 661.76 594.29 674.81 594.20 687.85 594.04 C 685.03 597.83 681.01 600.52 678.24 604.35 C 675.78 607.72 676.49 612.10 676.34 616.01 C 675.70 661.67 676.11 707.33 676.04 752.99 C 676.10 758.34 675.92 763.93 677.97 768.98 C 680.04 772.96 684.19 775.12 687.54 777.88 C 684.81 778.76 681.98 779.55 679.08 779.39 C 670.71 779.01 662.34 779.53 653.98 779.07 C 651.90 779.20 650.43 777.67 648.90 776.56 C 651.62 775.71 654.37 774.94 657.10 774.11 C 657.29 770.98 658.72 768.15 659.47 765.16 C 660.66 760.52 661.04 755.73 661.06 750.96 C 661.17 709.98 661.27 669.01 661.06 628.03 C 661.03 619.80 660.78 611.28 657.47 603.61 C 655.73 599.54 651.87 597.10 648.71 594.25 Z" />
<path fill="#6f6c6a" opacity="1.00" d=" M 732.82 594.01 C 740.77 593.99 748.72 594.00 756.67 594.01 C 786.98 634.76 817.46 675.39 847.91 716.04 C 857.76 729.14 867.35 742.43 876.99 755.68 C 877.90 729.12 877.09 702.54 877.36 675.98 C 877.35 657.05 877.42 638.12 876.76 619.21 C 875.80 612.07 873.88 603.59 867.01 599.85 C 864.46 598.26 861.93 596.65 859.57 594.81 C 870.59 594.03 881.64 594.25 892.68 594.27 C 890.07 597.15 887.13 599.68 884.31 602.33 C 881.23 604.93 881.48 609.33 881.32 612.99 C 881.26 644.98 881.59 676.97 881.53 708.96 C 881.59 733.81 880.97 758.65 880.79 783.49 C 873.59 777.78 868.81 769.82 863.29 762.62 C 835.33 724.35 806.79 686.51 778.54 648.44 C 770.07 636.83 761.52 625.26 752.81 613.82 C 752.32 637.21 752.34 660.60 752.40 683.99 C 752.57 704.98 751.94 725.99 752.94 746.96 C 753.23 752.95 753.33 758.95 753.63 764.95 C 756.93 766.82 758.14 770.63 760.85 773.09 C 763.79 775.31 767.28 776.65 770.58 778.26 C 759.77 779.58 748.83 779.39 738.01 778.39 C 739.34 774.80 743.50 773.60 745.24 770.29 C 748.19 765.43 748.31 759.54 748.39 754.03 C 748.46 709.37 748.18 664.71 748.53 620.05 C 748.32 615.52 748.79 610.61 746.53 606.50 C 743.21 601.13 737.65 597.84 732.82 594.01 Z" />
<path fill="#6f6c6a" opacity="1.00" d=" M 480.18 929.01 C 480.14 923.27 479.76 917.38 481.57 911.84 C 482.02 926.21 481.59 940.61 481.63 954.99 C 478.32 955.38 474.98 955.54 471.65 955.39 C 471.39 954.66 470.86 953.21 470.59 952.49 C 473.79 952.52 477.00 952.58 480.20 952.33 C 480.15 944.55 480.32 936.78 480.18 929.01 Z" />
</g>
</svg>
