<?xml version="1.0" encoding="UTF-8" ?>
<!DOCTYPE svg PUBLIC "-//W3C//DTD SVG 1.1//EN" "http://www.w3.org/Graphics/SVG/1.1/DTD/svg11.dtd">
<svg width="842pt" height="655pt" viewBox="0 0 842 655" version="1.1" xmlns="http://www.w3.org/2000/svg">
<g id="#fdfcf8ff">
<path fill="#fdfcf8" opacity="1.00" d=" M 421.10 30.16 C 437.41 29.37 453.86 30.80 469.63 35.13 C 484.60 39.07 498.67 45.99 511.65 54.36 C 527.42 64.04 540.70 77.33 551.82 92.02 C 563.82 107.41 572.51 125.26 577.73 144.04 C 580.93 158.80 584.11 173.73 583.52 188.93 C 582.17 216.43 574.55 243.92 559.75 267.29 C 548.87 284.49 534.06 298.89 517.87 311.06 C 508.23 318.40 497.27 323.78 486.09 328.33 C 477.36 331.97 468.36 335.14 459.05 336.88 C 450.26 338.27 441.42 339.94 432.49 339.65 C 432.28 317.26 432.54 294.87 432.50 272.47 C 439.71 270.70 447.28 270.77 454.40 268.55 C 463.00 265.90 471.40 262.61 479.49 258.67 C 495.20 250.39 507.94 237.26 517.54 222.46 C 528.46 205.77 534.37 185.95 534.61 166.02 C 534.67 164.36 533.95 162.84 533.39 161.32 C 519.75 160.86 505.81 162.40 493.13 167.67 C 489.51 169.30 486.00 171.19 482.36 172.80 C 482.03 151.72 482.78 130.61 482.19 109.53 C 480.26 109.49 478.22 109.29 476.47 110.27 C 463.29 117.10 453.04 128.24 444.00 139.77 C 437.88 148.23 432.94 157.65 430.12 167.74 C 429.68 169.17 428.78 170.37 427.99 171.62 C 422.78 153.10 411.36 136.72 397.51 123.55 C 392.24 118.79 386.80 114.11 380.62 110.56 C 378.80 109.42 376.58 109.56 374.55 109.30 C 372.93 116.41 374.12 123.75 373.80 130.97 C 373.30 144.88 374.09 158.81 373.34 172.70 C 361.47 166.41 348.33 162.92 335.03 161.44 C 331.27 161.24 327.48 161.06 323.74 161.54 C 322.02 162.36 322.32 164.40 322.16 165.97 C 321.81 184.93 327.28 203.77 336.74 220.13 C 346.20 235.55 359.45 248.64 374.95 257.98 C 384.73 263.09 395.18 266.98 405.95 269.44 C 412.03 270.40 418.12 271.42 424.26 271.88 C 424.43 294.43 424.37 317.00 424.28 339.55 C 409.68 339.88 395.08 337.10 381.25 332.54 C 367.35 327.66 353.62 321.87 341.46 313.44 C 329.74 305.43 319.30 295.69 309.72 285.25 C 275.80 246.43 263.94 189.71 279.45 140.55 C 283.81 126.60 289.54 112.94 297.87 100.86 C 312.15 79.55 330.78 60.66 353.69 48.72 C 374.25 37.25 397.56 30.76 421.10 30.16 M 422.95 86.55 C 416.45 88.10 411.80 93.64 410.13 99.93 C 407.28 109.35 413.98 119.51 422.99 122.37 C 428.00 123.39 433.59 123.14 437.87 120.05 C 447.24 114.61 449.15 100.20 441.66 92.42 C 437.25 86.86 429.66 85.29 422.95 86.55 Z" />
<path fill="#fdfcf8" opacity="1.00" d=" M 423.43 95.42 C 428.38 92.75 435.25 95.01 437.64 100.15 C 440.74 106.67 434.31 115.79 427.02 114.16 C 424.06 113.53 420.67 112.60 419.19 109.68 C 416.14 104.84 418.04 97.68 423.43 95.42 Z" />
<path fill="#fdfcf8" opacity="1.00" d=" M 380.56 118.62 C 381.24 119.74 381.96 120.84 382.71 121.93 C 402.00 135.19 415.74 156.07 420.97 178.85 C 424.80 194.80 424.70 211.34 424.21 227.63 C 422.43 221.72 419.27 216.36 415.92 211.23 C 410.61 202.44 403.63 194.75 395.98 187.94 C 391.77 184.14 386.77 181.37 382.49 177.66 C 382.19 174.76 381.83 171.87 381.83 168.96 C 382.21 155.99 382.58 142.98 381.72 130.03 C 381.42 126.23 382.58 122.10 380.56 118.62 Z" />
<path fill="#fdfcf8" opacity="1.00" d=" M 470.95 123.86 C 471.96 122.98 473.25 122.55 474.49 122.09 C 474.47 140.29 474.46 158.50 474.42 176.70 C 471.44 179.34 468.22 181.68 465.02 184.02 C 458.89 188.47 453.75 194.07 448.52 199.50 C 442.17 206.93 437.82 215.73 433.06 224.19 C 432.69 224.31 431.95 224.53 431.57 224.65 C 432.68 213.45 431.90 202.15 433.32 190.97 C 433.70 182.46 436.54 174.31 439.23 166.31 C 443.81 155.33 449.44 144.50 457.81 135.89 C 461.71 131.39 466.34 127.60 470.95 123.86 Z" />
<path fill="#fdfcf8" opacity="1.00" d=" M 330.17 170.18 C 351.10 171.34 371.54 179.04 387.99 192.04 C 396.12 198.92 403.39 206.93 409.20 215.87 C 417.49 230.06 423.56 246.18 422.83 262.85 C 410.61 262.66 398.92 258.73 387.71 254.23 C 372.55 247.57 359.90 236.34 349.10 223.99 C 337.66 208.50 330.59 189.51 330.17 170.18 Z" />
<path fill="#fdfcf8" opacity="1.00" d=" M 506.21 173.26 C 512.61 171.40 519.32 171.29 525.85 170.12 C 525.80 188.60 518.74 206.49 508.73 221.81 C 501.18 232.03 491.27 240.25 480.89 247.46 C 473.36 252.92 464.61 256.35 455.86 259.31 C 448.26 261.39 440.41 262.50 432.62 263.51 C 432.87 247.20 438.04 231.20 446.29 217.21 C 456.74 200.95 471.48 187.03 489.32 179.24 C 494.76 176.75 500.40 174.69 506.21 173.26 Z" />
</g>
<g id="#ef6b4cff">
<path fill="#ef6b4c" opacity="1.00" d=" M 406.42 22.74 C 429.68 20.60 453.66 21.30 475.99 28.72 C 484.55 31.74 493.24 34.53 501.31 38.74 C 521.39 49.25 539.30 63.75 554.25 80.74 C 565.44 94.06 573.83 109.58 580.14 125.73 C 587.79 145.17 591.08 166.18 590.74 187.02 C 590.82 199.44 589.64 211.90 586.77 224.00 C 581.44 245.71 571.39 266.14 558.06 284.05 C 540.85 306.65 517.55 324.44 491.46 335.60 C 484.22 338.70 476.87 341.73 469.13 343.36 C 457.28 346.27 445.16 348.39 432.93 348.38 C 423.27 348.41 413.50 348.82 404.00 346.76 C 392.50 344.83 380.96 342.47 370.15 337.99 C 352.72 330.84 336.06 321.51 321.68 309.28 C 314.02 302.29 306.50 295.09 299.99 287.00 C 286.97 270.37 277.07 251.26 271.31 230.92 C 268.80 221.09 265.96 211.24 265.55 201.04 C 265.34 192.05 265.36 183.06 265.38 174.07 C 265.04 162.10 268.34 150.46 271.20 138.96 C 277.10 120.25 285.70 102.29 297.48 86.55 C 311.67 68.43 329.16 52.74 349.24 41.41 C 362.96 33.78 377.90 28.64 393.08 24.78 C 397.48 23.80 401.99 23.51 406.42 22.74 M 421.10 30.16 C 397.56 30.76 374.25 37.25 353.69 48.72 C 330.78 60.66 312.15 79.55 297.87 100.86 C 289.54 112.94 283.81 126.60 279.45 140.55 C 263.94 189.71 275.80 246.43 309.72 285.25 C 319.30 295.69 329.74 305.43 341.46 313.44 C 353.62 321.87 367.35 327.66 381.25 332.54 C 395.08 337.10 409.68 339.88 424.28 339.55 C 424.37 317.00 424.43 294.43 424.26 271.88 C 418.12 271.42 412.03 270.40 405.95 269.44 C 395.18 266.98 384.73 263.09 374.95 257.98 C 359.45 248.64 346.20 235.55 336.74 220.13 C 327.28 203.77 321.81 184.93 322.16 165.97 C 322.32 164.40 322.02 162.36 323.74 161.54 C 327.48 161.06 331.27 161.24 335.03 161.44 C 348.33 162.92 361.47 166.41 373.34 172.70 C 374.09 158.81 373.30 144.88 373.80 130.97 C 374.12 123.75 372.93 116.41 374.55 109.30 C 376.58 109.56 378.80 109.42 380.62 110.56 C 386.80 114.11 392.24 118.79 397.51 123.55 C 411.36 136.72 422.78 153.10 427.99 171.62 C 428.78 170.37 429.68 169.17 430.12 167.74 C 432.94 157.65 437.88 148.23 444.00 139.77 C 453.04 128.24 463.29 117.10 476.47 110.27 C 478.22 109.29 480.26 109.49 482.19 109.53 C 482.78 130.61 482.03 151.72 482.36 172.80 C 486.00 171.19 489.51 169.30 493.13 167.67 C 505.81 162.40 519.75 160.86 533.39 161.32 C 533.95 162.84 534.67 164.36 534.61 166.02 C 534.37 185.95 528.46 205.77 517.54 222.46 C 507.94 237.26 495.20 250.39 479.49 258.67 C 471.40 262.61 463.00 265.90 454.40 268.55 C 447.28 270.77 439.71 270.70 432.50 272.47 C 432.54 294.87 432.28 317.26 432.49 339.65 C 441.42 339.94 450.26 338.27 459.05 336.88 C 468.36 335.14 477.36 331.97 486.09 328.33 C 497.27 323.78 508.23 318.40 517.87 311.06 C 534.06 298.89 548.87 284.49 559.75 267.29 C 574.55 243.92 582.17 216.43 583.52 188.93 C 584.11 173.73 580.93 158.80 577.73 144.04 C 572.51 125.26 563.82 107.41 551.82 92.02 C 540.70 77.33 527.42 64.04 511.65 54.36 C 498.67 45.99 484.60 39.07 469.63 35.13 C 453.86 30.80 437.41 29.37 421.10 30.16 M 380.56 118.62 C 382.58 122.10 381.42 126.23 381.72 130.03 C 382.58 142.98 382.21 155.99 381.83 168.96 C 381.83 171.87 382.19 174.76 382.49 177.66 C 386.77 181.37 391.77 184.14 395.98 187.94 C 403.63 194.75 410.61 202.44 415.92 211.23 C 419.27 216.36 422.43 221.72 424.21 227.63 C 424.70 211.34 424.80 194.80 420.97 178.85 C 415.74 156.07 402.00 135.19 382.71 121.93 C 381.96 120.84 381.24 119.74 380.56 118.62 M 470.95 123.86 C 466.34 127.60 461.71 131.39 457.81 135.89 C 449.44 144.50 443.81 155.33 439.23 166.31 C 436.54 174.31 433.70 182.46 433.32 190.97 C 431.90 202.15 432.68 213.45 431.57 224.65 C 431.95 224.53 432.69 224.31 433.06 224.19 C 437.82 215.73 442.17 206.93 448.52 199.50 C 453.75 194.07 458.89 188.47 465.02 184.02 C 468.22 181.68 471.44 179.34 474.42 176.70 C 474.46 158.50 474.47 140.29 474.49 122.09 C 473.25 122.55 471.96 122.98 470.95 123.86 M 330.17 170.18 C 330.59 189.51 337.66 208.50 349.10 223.99 C 359.90 236.34 372.55 247.57 387.71 254.23 C 398.92 258.73 410.61 262.66 422.83 262.85 C 423.56 246.18 417.49 230.06 409.20 215.87 C 403.39 206.93 396.12 198.92 387.99 192.04 C 371.54 179.04 351.10 171.34 330.17 170.18 M 506.21 173.26 C 500.40 174.69 494.76 176.75 489.32 179.24 C 471.48 187.03 456.74 200.95 446.29 217.21 C 438.04 231.20 432.87 247.20 432.62 263.51 C 440.41 262.50 448.26 261.39 455.86 259.31 C 464.61 256.35 473.36 252.92 480.89 247.46 C 491.27 240.25 501.18 232.03 508.73 221.81 C 518.74 206.49 525.80 188.60 525.85 170.12 C 519.32 171.29 512.61 171.40 506.21 173.26 Z" />
<path fill="#ef6b4c" opacity="1.00" d=" M 422.95 86.55 C 429.66 85.29 437.25 86.86 441.66 92.42 C 449.15 100.20 447.24 114.61 437.87 120.05 C 433.59 123.14 428.00 123.39 422.99 122.37 C 413.98 119.51 407.28 109.35 410.13 99.93 C 411.80 93.64 416.45 88.10 422.95 86.55 M 423.43 95.42 C 418.04 97.68 416.14 104.84 419.19 109.68 C 420.67 112.60 424.06 113.53 427.02 114.16 C 434.31 115.79 440.74 106.67 437.64 100.15 C 435.25 95.01 428.38 92.75 423.43 95.42 Z" />
<path fill="#ef6b4c" opacity="1.00" d=" M 439.81 545.77 C 440.04 545.23 440.49 544.16 440.72 543.63 C 442.93 543.95 445.15 544.26 447.37 544.55 C 447.30 563.18 447.31 581.81 447.38 600.44 C 445.00 600.30 441.78 601.64 439.93 600.04 C 439.57 586.05 439.79 572.04 439.76 558.04 C 439.63 553.94 440.68 549.83 439.81 545.77 Z" />
<path fill="#ef6b4c" opacity="1.00" d=" M 460.67 544.49 C 462.47 544.16 464.27 543.71 466.12 543.78 C 467.06 544.62 467.44 545.70 467.26 547.01 C 466.36 564.84 467.01 582.70 467.38 600.54 C 465.30 600.71 463.19 601.01 461.12 600.68 C 460.47 598.17 460.80 595.54 460.70 592.98 C 460.51 576.82 460.88 560.65 460.67 544.49 Z" />
<path fill="#ef6b4c" opacity="1.00" d=" M 649.56 547.38 C 658.83 544.73 669.71 548.91 674.72 557.17 C 672.83 558.35 670.92 559.48 669.01 560.61 C 664.14 551.91 650.48 550.26 644.13 558.12 C 639.78 564.54 639.99 572.70 640.42 580.12 C 640.89 586.04 643.94 592.60 649.96 594.57 C 656.79 596.82 665.96 595.04 669.00 587.79 C 669.34 587.76 670.03 587.69 670.37 587.65 C 671.72 588.64 673.18 589.53 674.33 590.78 C 674.69 594.20 671.34 596.20 668.98 598.00 C 663.53 602.01 656.36 602.18 649.91 601.39 C 641.44 599.93 634.81 592.20 633.61 583.85 C 631.32 573.97 632.06 562.77 638.01 554.26 C 640.60 550.35 645.22 548.56 649.56 547.38 Z" />
<path fill="#ef6b4c" opacity="1.00" d=" M 555.89 547.70 C 558.95 547.57 562.03 547.58 565.10 547.75 C 571.84 565.09 576.67 583.14 583.72 600.37 C 581.13 600.63 578.51 600.67 575.93 600.38 C 574.59 595.99 573.09 591.66 571.58 587.34 C 564.49 587.29 557.38 587.16 550.29 587.39 C 547.77 591.06 547.30 595.63 545.92 599.77 C 543.84 601.56 540.81 601.23 538.34 600.57 C 544.33 583.00 550.28 565.39 555.89 547.70 M 553.05 580.40 C 558.27 580.64 563.58 579.73 568.74 580.44 C 567.93 576.89 566.53 573.51 565.74 569.97 C 564.34 563.97 561.60 558.28 561.14 552.09 C 559.42 561.76 554.04 570.53 553.05 580.40 Z" />
<path fill="#ef6b4c" opacity="1.00" d=" M 163.24 548.33 C 168.16 548.34 173.07 547.54 177.99 548.22 C 183.00 548.71 188.87 547.43 193.09 550.86 C 197.05 554.00 196.83 559.48 196.32 564.01 C 196.11 568.12 192.00 570.12 189.07 572.24 C 192.16 573.47 196.10 573.91 197.94 577.06 C 200.15 580.97 199.93 585.78 199.06 590.05 C 197.80 596.09 191.48 599.26 185.84 599.91 C 178.36 600.77 170.82 600.09 163.31 600.31 C 163.31 582.98 163.52 565.65 163.24 548.33 M 170.50 570.56 C 176.30 568.21 184.23 571.77 188.58 566.22 C 188.63 563.14 189.03 560.03 188.41 556.99 C 186.86 555.12 184.33 554.66 182.03 554.60 C 178.11 554.48 174.19 554.61 170.27 554.37 C 169.16 559.72 170.34 565.17 170.50 570.56 M 169.70 576.49 C 169.99 582.51 169.49 588.57 170.52 594.54 C 176.61 594.32 182.95 594.81 188.79 592.74 C 193.95 589.80 193.80 581.74 190.09 577.67 C 183.47 575.89 176.48 575.93 169.70 576.49 Z" />
<path fill="#ef6b4c" opacity="1.00" d=" M 420.30 547.33 C 422.69 547.22 425.10 547.18 427.50 547.23 C 427.69 549.67 427.70 552.13 427.51 554.59 C 425.08 554.53 422.65 554.45 420.23 554.37 C 420.24 552.02 420.26 549.67 420.30 547.33 Z" />
<path fill="#ef6b4c" opacity="1.00" d=" M 341.54 562.68 C 348.17 559.09 356.56 558.29 363.56 561.27 C 367.95 563.10 369.28 568.25 369.61 572.55 C 370.05 581.92 369.86 591.31 369.70 600.69 C 367.72 601.12 365.73 600.89 363.80 600.38 C 363.30 598.85 362.80 597.34 362.30 595.84 C 359.44 597.39 357.77 600.74 354.37 601.33 C 350.45 602.22 345.66 602.47 342.52 599.49 C 340.29 597.13 338.48 594.22 337.82 591.02 C 337.55 586.40 339.23 581.20 343.46 578.80 C 349.36 575.82 356.18 575.98 362.62 575.51 C 362.73 571.87 362.33 567.36 358.49 565.68 C 354.02 564.92 348.72 564.69 345.41 568.34 C 343.96 570.25 340.46 569.14 340.24 566.83 C 340.22 565.39 339.85 563.29 341.54 562.68 M 346.38 584.32 C 344.46 588.27 344.59 594.65 349.62 596.09 C 354.56 596.98 358.43 593.14 362.34 590.80 C 362.26 587.49 363.72 583.31 361.19 580.66 C 355.99 579.97 351.05 582.34 346.38 584.32 Z" />
<path fill="#ef6b4c" opacity="1.00" d=" M 257.51 565.56 C 262.80 559.03 272.94 557.87 280.03 562.00 C 285.88 566.59 286.82 574.70 286.56 581.65 C 277.79 581.51 269.01 581.74 260.24 581.46 C 259.79 585.95 261.15 590.56 264.04 594.03 C 268.98 597.57 276.85 597.22 280.01 591.47 C 281.56 591.90 283.11 592.34 284.66 592.79 C 284.77 597.33 280.35 600.54 276.28 601.37 C 270.98 602.21 264.80 602.35 260.55 598.52 C 255.38 594.33 253.19 587.46 253.57 580.98 C 253.90 575.70 254.21 569.94 257.51 565.56 M 264.81 566.83 C 261.48 569.17 260.87 573.59 260.42 577.34 C 266.74 576.17 273.21 577.22 279.56 576.33 C 279.88 576.67 280.53 577.33 280.85 577.67 C 279.53 573.38 278.96 567.77 274.33 565.71 C 271.20 564.98 267.45 564.61 264.81 566.83 Z" />
<path fill="#ef6b4c" opacity="1.00" d=" M 295.60 560.40 C 297.85 560.48 300.09 560.58 302.34 560.68 C 302.75 562.69 303.15 564.70 303.54 566.73 C 306.17 563.85 309.07 560.89 313.00 559.95 C 316.47 559.18 320.57 559.09 323.47 561.48 C 326.40 563.68 327.39 567.53 327.54 571.02 C 328.13 580.93 327.43 590.87 327.97 600.78 C 325.51 600.74 323.06 600.66 320.61 600.49 C 320.44 591.32 320.53 582.15 320.52 572.98 C 320.58 570.75 319.94 568.61 319.29 566.51 C 312.96 564.97 307.00 568.29 302.62 572.60 C 301.46 575.27 301.66 578.23 301.68 581.07 C 301.83 586.96 301.69 592.86 301.65 598.76 C 299.62 598.76 297.60 598.74 295.58 598.77 C 296.07 585.99 295.72 573.19 295.60 560.40 Z" />
<path fill="#ef6b4c" opacity="1.00" d=" M 420.46 560.46 C 422.54 560.54 424.62 560.62 426.70 560.69 C 427.84 567.07 426.62 573.53 427.07 579.95 C 427.10 586.76 426.31 593.60 427.32 600.38 C 425.08 601.15 422.75 601.18 420.46 600.70 C 420.39 587.28 420.40 573.87 420.46 560.46 Z" />
<path fill="#ef6b4c" opacity="1.00" d=" M 479.36 564.49 C 486.70 558.59 498.30 557.27 506.20 562.79 C 508.73 564.60 509.04 568.07 509.46 570.93 C 509.97 580.73 509.79 590.56 509.75 600.37 C 507.80 600.42 505.86 600.39 503.92 600.27 C 503.74 598.75 503.57 597.25 503.40 595.75 C 499.61 597.13 497.23 601.00 493.09 601.69 C 488.51 603.28 483.46 601.12 480.99 597.08 C 478.09 593.94 478.24 589.47 478.84 585.54 C 479.91 581.01 484.31 578.16 488.51 576.88 C 493.26 576.05 498.08 575.54 502.90 575.46 C 502.56 572.63 503.40 569.11 501.02 566.99 C 498.24 565.08 494.60 565.07 491.39 565.53 C 487.73 566.48 484.61 569.50 480.58 568.75 C 480.17 567.32 479.77 565.91 479.36 564.49 M 487.97 583.82 C 483.97 586.19 483.96 593.81 488.86 595.16 C 493.84 597.25 499.03 594.09 502.49 590.66 C 503.84 587.49 503.83 583.67 502.63 580.44 C 497.72 581.25 492.11 580.55 487.97 583.82 Z" />
<path fill="#ef6b4c" opacity="1.00" d=" M 211.22 560.48 C 213.32 560.57 215.43 560.66 217.54 560.76 C 217.93 571.67 216.74 582.68 218.39 593.53 C 219.88 594.28 221.26 595.60 223.05 595.51 C 227.73 595.59 231.49 592.30 235.41 590.19 C 235.86 580.31 235.61 570.41 235.65 560.51 C 237.92 560.57 240.20 560.64 242.48 560.71 C 242.61 574.00 242.68 587.31 242.67 600.61 C 240.60 600.60 238.54 600.57 236.48 600.50 C 236.07 598.66 235.68 596.81 235.31 594.97 C 231.59 598.31 227.17 601.33 222.01 601.56 C 217.14 601.62 211.48 598.37 211.42 592.97 C 210.99 582.15 211.26 571.31 211.22 560.48 Z" />
<path fill="#ef6b4c" opacity="1.00" d=" M 379.09 560.40 C 381.03 560.86 384.07 559.54 385.15 561.83 C 388.67 571.48 391.87 581.26 394.83 591.10 C 397.04 590.96 396.64 588.46 397.27 587.00 C 399.07 577.95 403.78 569.67 404.75 560.43 C 407.18 560.45 409.61 560.52 412.05 560.64 C 410.93 565.85 408.62 570.67 406.85 575.67 C 404.06 583.94 401.24 592.20 398.09 600.34 C 396.43 600.73 394.76 601.10 393.09 601.42 C 387.66 591.34 385.01 580.13 380.66 569.60 C 379.34 566.71 379.12 563.52 379.09 560.40 Z" />
<path fill="#ef6b4c" opacity="1.00" d=" M 592.29 593.77 C 594.01 592.83 595.85 590.75 597.97 591.98 C 600.82 592.99 601.28 596.49 601.46 599.11 C 599.16 601.45 595.47 600.29 592.54 600.40 C 592.33 598.19 592.25 595.98 592.29 593.77 Z" />
<path fill="#ef6b4c" opacity="1.00" d=" M 687.60 592.51 C 688.81 592.57 690.03 592.64 691.25 592.71 C 693.09 594.52 693.76 596.90 693.60 599.44 C 691.23 600.50 688.24 601.56 685.81 600.24 C 683.85 599.20 684.50 596.87 684.55 595.11 C 685.57 594.24 686.59 593.38 687.60 592.51 Z" />
</g>
<g id="#6f6c6aff">
<path fill="#6f6c6a" opacity="1.00" d=" M 331.11 373.01 C 345.64 371.87 360.26 374.46 373.63 380.22 C 374.39 386.35 374.43 392.54 374.42 398.70 C 371.48 397.18 370.77 393.65 368.62 391.36 C 361.96 382.32 350.80 378.07 340.07 376.32 C 325.73 374.28 309.95 377.17 298.74 386.80 C 288.67 395.19 283.83 408.30 282.51 421.04 C 281.56 432.44 281.97 444.40 286.93 454.94 C 292.32 467.92 302.63 479.03 315.87 484.13 C 326.64 488.48 338.76 489.33 350.08 486.85 C 361.13 484.00 370.83 475.87 375.32 465.34 C 376.13 464.06 376.49 461.76 378.61 462.22 C 376.94 467.54 376.97 473.12 376.45 478.61 C 376.07 481.83 372.82 483.32 370.15 484.33 C 354.15 490.23 336.70 492.69 319.76 490.33 C 306.28 488.58 293.28 481.96 284.65 471.35 C 265.05 447.24 268.49 407.41 292.89 387.80 C 303.52 378.78 317.24 373.72 331.11 373.01 Z" />
<path fill="#6f6c6a" opacity="1.00" d=" M 120.92 373.78 C 127.20 373.23 133.52 373.88 139.82 373.45 C 138.64 376.05 135.61 376.69 133.81 378.73 C 129.79 382.87 128.18 388.55 125.79 393.66 C 112.83 426.80 100.61 460.26 87.05 493.16 C 86.02 491.73 85.00 490.28 84.32 488.65 C 74.70 464.58 65.25 440.43 55.60 416.37 C 50.96 404.56 46.82 392.47 40.70 381.32 C 39.20 378.10 36.02 376.27 33.99 373.47 C 41.35 373.75 48.71 373.24 56.07 373.68 C 55.16 375.47 53.35 376.28 51.68 377.16 C 51.78 379.50 52.07 381.86 52.94 384.06 C 58.48 399.28 64.68 414.27 70.47 429.40 C 76.48 445.68 83.40 461.61 89.21 477.96 C 89.58 478.76 89.98 479.54 90.43 480.31 C 92.82 471.76 96.63 463.71 99.59 455.36 C 105.92 439.34 111.99 423.23 118.24 407.19 C 121.08 398.84 125.12 390.75 126.27 381.93 C 126.83 378.10 122.80 376.42 120.92 373.78 Z" />
<path fill="#6f6c6a" opacity="1.00" d=" M 160.97 373.72 C 186.18 373.14 211.40 373.65 236.61 373.35 C 237.12 380.37 237.67 387.40 238.18 394.43 C 234.87 391.99 234.37 387.36 231.08 384.85 C 225.98 378.95 218.23 375.94 210.55 375.69 C 199.82 375.19 189.08 375.58 178.34 375.56 C 177.39 379.65 177.89 383.86 177.80 388.02 C 177.92 401.12 177.46 414.23 178.27 427.31 C 186.18 427.47 194.08 427.19 201.99 427.35 C 208.69 427.25 215.85 427.38 221.87 423.99 C 225.22 422.25 226.55 418.46 229.37 416.13 C 229.29 424.01 229.10 431.90 229.42 439.78 C 226.95 438.44 226.29 435.47 224.14 433.81 C 221.27 431.50 217.89 429.34 214.05 429.52 C 202.11 429.54 190.18 429.34 178.24 429.57 C 177.48 441.69 177.92 453.85 177.80 465.99 C 177.92 472.84 177.33 479.75 178.54 486.55 C 181.33 487.17 184.18 487.55 187.05 487.48 C 197.37 487.33 207.71 487.71 218.03 487.29 C 224.97 487.03 232.19 484.21 236.36 478.43 C 239.05 475.72 239.71 471.76 242.25 468.95 C 242.87 475.82 240.94 482.69 241.43 489.61 C 214.82 489.65 188.18 490.02 161.58 489.38 C 160.99 486.91 164.72 486.84 166.29 486.12 C 168.31 481.34 167.63 476.03 168.17 470.99 C 168.52 445.01 168.18 419.02 168.24 393.04 C 168.00 387.89 167.96 382.63 166.38 377.67 C 164.40 376.61 162.33 375.57 160.97 373.72 Z" />
<path fill="#6f6c6a" opacity="1.00" d=" M 407.50 373.52 C 415.63 373.43 423.77 373.56 431.90 373.37 C 429.84 377.20 424.45 378.96 424.85 383.99 C 424.33 412.32 424.83 440.67 424.65 469.01 C 424.78 473.30 424.31 477.67 425.27 481.88 C 425.99 485.09 429.14 486.65 431.62 488.35 C 430.10 490.57 427.28 489.75 425.01 489.81 C 419.62 489.38 414.15 490.10 408.80 489.34 C 408.53 489.03 408.00 488.42 407.74 488.11 C 409.76 487.23 411.87 486.51 414.09 486.28 C 413.69 486.20 412.89 486.03 412.49 485.94 C 415.22 481.08 415.24 475.37 415.26 469.96 C 415.39 443.97 415.33 417.99 415.26 392.01 C 415.03 387.64 414.87 383.06 412.88 379.08 C 411.94 376.51 409.20 375.47 407.50 373.52 Z" />
<path fill="#6f6c6a" opacity="1.00" d=" M 460.22 373.34 C 465.24 373.57 470.25 373.28 475.27 373.41 C 496.94 402.19 518.28 431.23 539.99 459.98 C 543.77 464.86 547.14 470.04 550.89 474.94 C 551.51 461.95 550.92 448.95 551.08 435.95 C 551.15 420.23 551.22 404.50 550.78 388.78 C 550.55 385.19 548.97 381.84 547.27 378.73 C 544.95 376.95 542.03 376.04 540.04 373.80 C 546.89 373.32 553.76 373.86 560.62 373.55 C 559.04 376.00 556.49 377.47 554.49 379.51 C 553.53 381.53 553.69 383.84 553.57 386.02 C 553.46 416.67 554.22 447.34 553.38 477.99 C 553.27 482.76 553.49 487.53 553.29 492.30 C 549.44 489.66 547.08 485.44 544.19 481.87 C 520.66 449.61 496.46 417.84 472.82 385.68 C 472.33 401.45 472.81 417.25 472.61 433.03 C 472.71 448.12 472.22 463.24 473.40 478.29 C 473.34 479.38 473.29 480.47 473.26 481.57 C 475.12 480.26 475.40 482.76 476.24 483.95 C 477.76 487.02 481.60 487.43 484.27 489.15 C 477.64 490.14 470.89 489.38 464.22 489.61 C 462.72 487.64 465.76 487.12 466.77 485.94 C 470.36 482.65 469.98 477.37 470.11 472.95 C 470.10 448.61 470.05 424.28 470.06 399.95 C 470.09 394.32 470.55 388.66 469.78 383.07 C 468.35 378.45 463.76 376.15 460.22 373.34 Z" />
<path fill="#6f6c6a" opacity="1.00" d=" M 636.45 373.51 C 650.07 371.66 664.66 372.31 676.91 379.17 C 692.74 387.26 703.59 403.56 705.91 421.08 C 707.46 434.16 706.99 448.03 701.25 460.11 C 695.57 471.25 686.39 480.96 674.73 485.81 C 661.49 491.67 646.26 492.66 632.23 489.32 C 613.33 484.70 597.49 469.22 592.69 450.32 C 589.80 439.32 589.38 427.58 591.60 416.42 C 595.26 400.24 606.01 385.26 621.34 378.37 C 626.10 376.02 631.21 374.39 636.45 373.51 M 632.51 376.75 C 618.65 379.76 606.01 390.09 602.22 404.05 C 597.22 418.38 598.58 434.24 603.43 448.42 C 608.96 463.95 620.09 478.05 635.52 484.60 C 643.45 488.34 652.50 488.46 661.05 487.45 C 674.29 485.87 686.93 477.71 692.67 465.49 C 699.83 451.14 699.36 434.05 694.82 418.96 C 689.73 402.13 678.14 386.46 661.65 379.45 C 652.58 375.30 642.19 374.51 632.51 376.75 Z" />
<path fill="#6f6c6a" opacity="1.00" d=" M 746.70 384.76 C 752.96 377.51 762.47 373.51 771.95 373.11 C 781.33 372.61 791.00 372.60 800.00 375.67 C 803.69 376.95 807.76 377.80 810.88 380.27 C 811.89 386.15 811.40 392.26 811.44 398.24 C 809.22 397.01 808.80 394.42 807.58 392.43 C 802.04 383.52 792.76 376.50 782.08 375.59 C 772.58 374.81 761.58 375.12 754.47 382.43 C 749.75 386.55 748.15 392.97 748.47 399.03 C 748.30 405.69 752.43 411.59 757.53 415.49 C 771.49 425.63 789.14 428.88 803.21 438.82 C 810.35 443.73 815.27 452.12 814.54 460.96 C 814.94 471.29 808.12 480.59 799.44 485.55 C 793.32 489.32 786.09 490.74 779.03 491.33 C 764.80 491.51 749.96 487.93 738.63 479.07 C 737.85 471.73 737.53 464.30 737.81 456.92 C 742.43 463.51 744.49 471.83 750.41 477.56 C 757.43 485.09 767.86 488.64 778.01 488.70 C 785.98 489.17 794.24 486.70 800.07 481.11 C 809.91 473.18 808.53 456.66 798.94 449.09 C 783.92 436.31 762.32 434.84 748.05 420.98 C 738.13 411.79 737.94 394.79 746.70 384.76 Z" />
<path fill="#6f6c6a" opacity="1.00" d=" M 301.68 581.07 C 301.66 578.23 301.46 575.27 302.62 572.60 C 302.49 581.82 302.74 591.04 302.54 600.26 C 300.22 599.96 296.29 601.97 295.58 598.77 C 297.60 598.74 299.62 598.76 301.65 598.76 C 301.69 592.86 301.83 586.96 301.68 581.07 Z" />
</g>
</svg>
