<?xml version="1.0" encoding="UTF-8" ?>
<!DOCTYPE svg PUBLIC "-//W3C//DTD SVG 1.1//EN" "http://www.w3.org/Graphics/SVG/1.1/DTD/svg11.dtd">
<svg width="533pt" height="540pt" viewBox="0 0 533 540" version="1.1" xmlns="http://www.w3.org/2000/svg">
<g id="#e2e2e2ff">
</g>
<g id="#ef6b4cff">
<path fill="#ef6b4c" opacity="1.00" d=" M 242.33 9.04 C 253.18 7.98 264.11 8.55 275.00 8.41 C 287.41 8.08 299.78 9.50 312.03 11.41 C 325.42 12.86 338.45 16.51 351.09 21.06 C 361.37 24.45 371.53 28.27 381.38 32.78 C 393.57 39.25 405.79 45.83 416.87 54.11 C 430.09 62.96 442.16 73.40 453.55 84.48 C 461.61 92.74 470.27 100.52 477.03 109.94 C 484.25 119.31 490.20 129.55 496.27 139.68 C 506.30 158.48 515.58 177.94 520.55 198.77 C 524.11 211.38 526.58 224.31 528.04 237.33 C 528.97 243.85 528.43 250.47 529.43 256.98 C 529.95 267.98 529.70 279.01 529.48 290.02 C 528.08 305.54 527.44 321.35 522.72 336.33 C 519.66 349.65 514.91 362.55 509.33 375.01 C 503.39 391.09 493.90 405.49 484.82 419.91 C 479.75 427.07 474.83 434.38 468.81 440.80 C 460.62 450.88 451.43 460.13 441.47 468.46 C 433.44 474.75 425.67 481.36 417.41 487.36 C 405.62 494.87 393.67 502.19 381.04 508.25 C 372.36 512.78 363.08 515.96 354.15 519.94 C 328.93 528.07 302.62 533.78 276.00 533.47 C 261.01 533.36 245.87 534.22 231.04 531.57 C 216.87 528.28 202.42 526.14 188.55 521.63 C 177.32 518.50 166.77 513.51 156.23 508.64 C 149.82 505.60 143.50 502.38 137.53 498.54 C 123.30 490.91 110.25 481.30 97.63 471.28 C 88.03 462.26 78.72 452.92 69.54 443.47 C 61.24 433.29 52.99 422.99 46.26 411.68 C 42.29 404.93 37.72 398.50 34.60 391.28 C 31.71 384.70 28.36 378.33 25.55 371.71 C 20.75 358.57 16.01 345.37 13.18 331.64 C 9.50 319.42 6.95 306.81 6.58 294.04 C 6.49 279.02 6.55 264.01 6.50 249.00 C 6.24 237.98 9.27 227.28 11.37 216.56 C 13.81 207.75 14.55 198.47 18.25 190.03 C 21.52 182.27 23.73 174.11 27.31 166.48 C 29.52 161.83 31.25 156.96 33.54 152.35 C 40.29 140.37 46.79 128.20 55.11 117.20 C 61.60 107.53 69.19 98.65 77.45 90.44 C 89.97 77.90 102.53 65.16 117.37 55.33 C 126.60 48.83 135.93 42.39 145.98 37.21 C 151.95 34.45 157.89 31.63 163.82 28.80 C 177.29 23.14 191.18 18.51 205.23 14.53 C 217.31 11.04 229.86 10.10 242.33 9.04 M 222.09 24.94 C 209.81 26.91 197.99 30.87 186.08 34.35 C 169.27 40.04 153.54 48.40 138.15 57.14 C 125.56 64.86 113.51 73.56 102.86 83.82 C 93.30 91.58 85.67 101.28 77.25 110.18 C 67.75 122.25 58.56 134.63 50.83 147.93 C 44.55 158.28 40.24 169.65 35.48 180.75 C 27.30 201.64 21.72 223.61 19.49 245.95 C 19.08 258.29 17.79 270.64 18.91 282.98 C 19.54 288.89 19.02 294.89 20.16 300.75 C 22.18 315.49 24.85 330.23 29.52 344.38 C 32.75 353.38 35.25 362.67 39.63 371.21 C 47.11 388.56 56.87 404.82 67.91 420.12 C 79.67 434.91 92.61 448.84 107.35 460.73 C 119.79 472.32 134.17 481.60 148.98 489.86 C 157.72 494.25 166.65 498.29 175.68 502.05 C 185.19 505.25 194.37 509.43 204.14 511.83 C 213.70 514.67 223.62 515.86 233.30 518.15 C 242.98 518.85 252.66 520.27 262.39 519.53 C 262.70 498.02 262.52 476.51 262.58 455.00 C 262.43 440.35 262.82 425.69 262.29 411.06 C 260.06 408.98 256.79 409.69 254.03 409.34 C 228.72 407.11 204.05 399.24 181.71 387.22 C 170.50 380.50 160.44 372.03 150.87 363.17 C 126.50 340.68 109.76 310.41 102.43 278.16 C 101.22 271.46 99.36 264.82 99.28 257.97 C 98.51 249.91 97.35 241.56 99.50 233.61 C 106.26 232.05 113.18 232.44 119.99 233.35 C 126.53 233.32 132.78 235.42 139.17 236.47 C 146.54 237.65 153.65 239.99 160.67 242.45 C 167.31 244.77 173.51 248.18 180.22 250.33 C 181.95 243.68 181.30 236.78 181.42 230.00 C 181.36 205.31 181.49 180.62 181.43 155.94 C 181.69 153.79 180.89 150.56 183.48 149.60 C 187.13 149.18 190.86 150.17 193.94 152.12 C 202.84 157.62 210.73 164.54 218.48 171.51 C 227.47 180.24 236.36 189.23 243.35 199.70 C 246.73 204.89 250.62 209.76 253.70 215.14 C 259.60 225.66 264.46 236.82 267.50 248.51 C 268.01 248.51 269.02 248.49 269.52 248.48 C 272.84 242.74 273.42 235.97 276.17 229.99 C 281.57 217.75 287.93 205.81 296.34 195.35 C 304.32 186.04 311.73 176.14 321.25 168.30 C 328.70 162.21 335.99 155.71 344.78 151.58 C 347.91 149.72 351.61 149.42 355.18 149.70 C 355.72 183.48 355.09 217.27 355.40 251.06 C 360.93 249.46 365.67 246.07 371.01 244.01 C 383.98 238.32 397.89 234.99 411.96 233.60 C 420.78 233.39 429.63 232.97 438.45 233.54 C 439.27 246.43 438.92 259.46 436.08 272.11 C 431.31 293.13 423.82 313.85 411.57 331.73 C 401.04 347.11 389.10 361.79 374.41 373.39 C 364.24 382.33 352.18 388.78 339.78 394.06 C 328.72 399.46 316.95 403.25 305.05 406.32 C 295.30 408.76 285.08 408.49 275.43 411.35 C 275.17 414.56 274.74 417.77 274.72 421.00 C 274.76 449.00 274.67 477.00 274.70 505.01 C 274.63 509.92 274.66 514.84 275.34 519.72 C 282.22 520.93 289.13 519.36 296.00 518.76 C 303.75 518.38 311.19 515.85 318.91 515.10 C 334.66 512.06 349.92 506.78 364.63 500.43 C 378.11 494.82 391.39 488.51 403.61 480.49 C 417.44 470.56 431.17 460.31 443.05 448.05 C 454.67 436.92 465.31 424.78 474.79 411.77 C 485.64 396.22 494.14 379.14 501.29 361.61 C 507.83 342.56 513.74 323.14 516.17 303.08 C 517.29 298.12 517.63 293.06 517.72 287.98 C 519.00 278.39 518.95 268.65 518.33 259.01 C 517.34 253.26 517.95 247.34 516.41 241.67 C 513.70 227.74 512.00 213.56 507.97 199.92 C 502.40 182.79 496.12 165.77 486.82 150.27 C 482.66 141.47 476.67 133.78 471.27 125.74 C 464.09 116.62 457.31 107.12 449.05 98.92 C 443.67 93.30 438.13 87.85 432.51 82.48 C 415.89 67.50 396.75 55.64 376.99 45.30 C 352.12 33.31 325.32 24.75 297.73 22.37 C 286.25 20.65 274.58 21.63 263.01 21.39 C 249.28 21.03 235.57 22.42 222.09 24.94 M 193.19 166.20 C 193.97 172.84 193.05 179.54 193.92 186.18 C 194.24 188.77 194.40 191.39 194.40 194.00 C 194.42 211.00 194.44 228.00 194.26 245.00 C 194.36 249.49 194.10 254.01 194.68 258.47 C 199.01 263.55 205.39 266.35 210.45 270.64 C 222.15 280.14 232.73 291.04 242.11 302.82 C 249.38 313.64 256.35 324.78 261.38 336.86 C 262.96 333.45 262.58 329.64 262.64 325.99 C 262.58 315.67 262.94 305.31 261.98 295.02 C 261.31 273.65 256.54 252.36 248.00 232.75 C 243.53 224.16 239.69 215.15 233.60 207.55 C 226.12 196.54 217.48 186.30 207.18 177.82 C 202.63 173.80 197.35 170.66 193.19 166.20 M 328.39 179.41 C 321.46 184.77 316.17 191.83 310.07 198.04 C 298.77 212.89 289.82 229.56 283.93 247.28 C 280.39 256.88 277.92 266.86 276.59 276.99 C 276.31 287.68 274.35 298.28 274.66 309.00 C 274.83 317.53 274.28 326.06 274.62 334.58 C 276.23 333.59 277.79 332.41 278.60 330.64 C 282.99 322.40 287.29 314.09 292.31 306.20 C 302.14 292.04 314.41 279.65 327.99 269.07 C 332.67 265.38 338.07 262.54 342.22 258.20 C 343.66 256.88 343.37 254.81 343.48 253.05 C 343.46 227.02 343.49 200.99 343.53 174.95 C 343.58 172.96 343.24 170.97 342.41 169.15 C 337.28 171.91 332.92 175.80 328.39 179.41 M 110.68 246.61 C 110.07 253.78 112.07 260.76 112.56 267.87 C 115.85 284.73 121.74 301.11 129.92 316.23 C 134.22 323.12 138.03 330.42 143.57 336.43 C 150.43 343.57 157.21 350.82 164.88 357.12 C 173.53 365.80 184.16 372.05 194.62 378.26 C 198.68 380.60 203.11 382.16 207.46 383.87 C 217.78 388.21 228.48 391.88 239.55 393.75 C 246.43 394.77 253.24 396.79 260.27 396.33 C 260.33 392.53 260.50 388.73 260.31 384.94 C 258.23 364.70 251.81 344.95 242.03 327.13 C 238.83 320.01 233.94 313.86 229.25 307.68 C 219.23 295.73 208.40 284.20 195.30 275.58 C 186.21 268.35 175.45 263.87 165.00 259.03 C 153.02 254.41 140.80 250.01 127.99 248.40 C 122.21 247.86 116.53 246.31 110.68 246.61 M 408.99 248.58 C 395.38 250.32 382.40 255.01 369.63 259.83 C 362.85 262.83 356.23 266.21 349.82 269.93 C 340.04 276.60 330.11 283.29 322.04 292.05 C 310.07 303.34 300.32 316.83 292.52 331.29 C 284.95 347.33 278.49 364.17 276.46 381.91 C 276.27 386.81 275.49 391.67 275.41 396.58 C 285.96 396.92 296.25 394.20 306.55 392.30 C 316.53 389.81 326.09 385.80 335.50 381.70 C 347.27 376.39 357.60 368.52 367.94 360.91 C 373.57 356.61 378.55 351.54 383.59 346.59 C 390.58 339.56 397.78 332.46 402.50 323.63 C 411.73 307.28 419.95 290.02 423.37 271.43 C 424.77 263.18 426.22 254.86 425.55 246.46 C 420.05 247.34 414.56 248.32 408.99 248.58 Z" />
<path fill="#ef6b4c" opacity="1.00" d=" M 259.80 112.50 C 274.48 108.30 292.06 117.09 296.18 132.09 C 301.70 147.61 291.52 166.36 275.60 170.28 C 268.83 170.93 261.25 171.77 255.23 167.90 C 246.97 162.96 240.36 154.68 238.74 145.06 C 237.96 140.44 239.15 135.84 239.62 131.26 C 239.84 131.73 240.06 132.20 240.29 132.67 C 241.98 122.81 250.26 114.90 259.80 112.50 M 264.28 125.00 C 260.94 126.03 257.68 127.69 255.42 130.41 C 250.14 136.48 250.41 146.38 255.62 152.40 C 260.09 156.22 266.35 157.11 272.05 156.65 C 275.58 156.61 278.30 154.03 280.60 151.63 C 284.03 148.06 286.05 142.88 285.28 137.93 C 283.77 128.67 273.11 122.51 264.28 125.00 Z" />
</g>
<g id="#fdfcf8ff">
<path fill="#fdfcf8" opacity="1.00" d=" M 222.09 24.94 C 235.57 22.42 249.28 21.03 263.01 21.39 C 274.58 21.63 286.25 20.65 297.73 22.37 C 325.32 24.75 352.12 33.31 376.99 45.30 C 396.75 55.64 415.89 67.50 432.51 82.48 C 438.13 87.85 443.67 93.30 449.05 98.92 C 457.31 107.12 464.09 116.62 471.27 125.74 C 476.67 133.78 482.66 141.47 486.82 150.27 C 496.12 165.77 502.40 182.79 507.97 199.92 C 512.00 213.56 513.70 227.74 516.41 241.67 C 517.95 247.34 517.34 253.26 518.33 259.01 C 518.95 268.65 519.00 278.39 517.72 287.98 C 517.63 293.06 517.29 298.12 516.17 303.08 C 513.74 323.14 507.83 342.56 501.29 361.61 C 494.14 379.14 485.64 396.22 474.79 411.77 C 465.31 424.78 454.67 436.92 443.05 448.05 C 431.17 460.31 417.44 470.56 403.61 480.49 C 391.39 488.51 378.11 494.82 364.63 500.43 C 349.92 506.78 334.66 512.06 318.91 515.10 C 311.19 515.85 303.75 518.38 296.00 518.76 C 289.13 519.36 282.22 520.93 275.34 519.72 C 274.66 514.84 274.63 509.92 274.70 505.01 C 274.67 477.00 274.76 449.00 274.72 421.00 C 274.74 417.77 275.17 414.56 275.43 411.35 C 285.08 408.49 295.30 408.76 305.05 406.32 C 316.95 403.25 328.72 399.46 339.78 394.06 C 352.18 388.78 364.24 382.33 374.41 373.39 C 389.10 361.79 401.04 347.11 411.57 331.73 C 423.82 313.85 431.31 293.13 436.08 272.11 C 438.92 259.46 439.27 246.43 438.45 233.54 C 429.63 232.97 420.78 233.39 411.96 233.60 C 397.89 234.99 383.98 238.32 371.01 244.01 C 365.67 246.07 360.93 249.46 355.40 251.06 C 355.09 217.27 355.72 183.48 355.18 149.70 C 351.61 149.42 347.91 149.72 344.78 151.58 C 335.99 155.71 328.70 162.21 321.25 168.30 C 311.73 176.14 304.32 186.04 296.34 195.35 C 287.93 205.81 281.57 217.75 276.17 229.99 C 273.42 235.97 272.84 242.74 269.52 248.48 C 269.02 248.49 268.01 248.51 267.50 248.51 C 264.46 236.82 259.60 225.66 253.70 215.14 C 250.62 209.76 246.73 204.89 243.35 199.70 C 236.36 189.23 227.47 180.24 218.48 171.51 C 210.73 164.54 202.84 157.62 193.94 152.12 C 190.86 150.17 187.13 149.18 183.48 149.60 C 180.89 150.56 181.69 153.79 181.43 155.94 C 181.49 180.62 181.36 205.31 181.42 230.00 C 181.30 236.78 181.95 243.68 180.22 250.33 C 173.51 248.18 167.31 244.77 160.67 242.45 C 153.65 239.99 146.54 237.65 139.17 236.47 C 132.78 235.42 126.53 233.32 119.99 233.35 C 113.18 232.44 106.26 232.05 99.50 233.61 C 97.35 241.56 98.51 249.91 99.28 257.97 C 99.36 264.82 101.22 271.46 102.43 278.16 C 109.76 310.41 126.50 340.68 150.87 363.17 C 160.44 372.03 170.50 380.50 181.71 387.22 C 204.05 399.24 228.72 407.11 254.03 409.34 C 256.79 409.69 260.06 408.98 262.29 411.06 C 262.82 425.69 262.43 440.35 262.58 455.00 C 262.52 476.51 262.70 498.02 262.39 519.53 C 252.66 520.27 242.98 518.85 233.30 518.15 C 223.62 515.86 213.70 514.67 204.14 511.83 C 194.37 509.43 185.19 505.25 175.68 502.05 C 166.65 498.29 157.72 494.25 148.98 489.86 C 134.17 481.60 119.79 472.32 107.35 460.73 C 92.61 448.84 79.67 434.91 67.91 420.12 C 56.87 404.82 47.11 388.56 39.63 371.21 C 35.25 362.67 32.75 353.38 29.52 344.38 C 24.85 330.23 22.18 315.49 20.16 300.75 C 19.02 294.89 19.54 288.89 18.91 282.98 C 17.79 270.64 19.08 258.29 19.49 245.95 C 21.72 223.61 27.30 201.64 35.48 180.75 C 40.24 169.65 44.55 158.28 50.83 147.93 C 58.56 134.63 67.75 122.25 77.25 110.18 C 85.67 101.28 93.30 91.58 102.86 83.82 C 113.51 73.56 125.56 64.86 138.15 57.14 C 153.54 48.40 169.27 40.04 186.08 34.35 C 197.99 30.87 209.81 26.91 222.09 24.94 M 259.80 112.50 C 250.26 114.90 241.98 122.81 240.29 132.67 C 240.06 132.20 239.84 131.73 239.62 131.26 C 239.15 135.84 237.96 140.44 238.74 145.06 C 240.36 154.68 246.97 162.96 255.23 167.90 C 261.25 171.77 268.83 170.93 275.60 170.28 C 291.52 166.36 301.70 147.61 296.18 132.09 C 292.06 117.09 274.48 108.30 259.80 112.50 Z" />
<path fill="#fdfcf8" opacity="1.00" d=" M 264.28 125.00 C 273.11 122.51 283.77 128.67 285.28 137.93 C 286.05 142.88 284.03 148.06 280.60 151.63 C 278.30 154.03 275.58 156.61 272.05 156.65 C 266.35 157.11 260.09 156.22 255.62 152.40 C 250.41 146.38 250.14 136.48 255.42 130.41 C 257.68 127.69 260.94 126.03 264.28 125.00 Z" />
<path fill="#fdfcf8" opacity="1.00" d=" M 193.19 166.20 C 197.35 170.66 202.63 173.80 207.18 177.82 C 217.48 186.30 226.12 196.54 233.60 207.55 C 239.69 215.15 243.53 224.16 248.00 232.75 C 256.54 252.36 261.31 273.65 261.98 295.02 C 262.94 305.31 262.58 315.67 262.64 325.99 C 262.58 329.64 262.96 333.45 261.38 336.86 C 256.35 324.78 249.38 313.64 242.11 302.82 C 232.73 291.04 222.15 280.14 210.45 270.64 C 205.39 266.35 199.01 263.55 194.68 258.47 C 194.10 254.01 194.36 249.49 194.26 245.00 C 194.44 228.00 194.42 211.00 194.40 194.00 C 194.40 191.39 194.24 188.77 193.92 186.18 C 193.05 179.54 193.97 172.84 193.19 166.20 Z" />
<path fill="#fdfcf8" opacity="1.00" d=" M 328.39 179.41 C 332.92 175.80 337.28 171.91 342.41 169.15 C 343.24 170.97 343.58 172.96 343.53 174.95 C 343.49 200.99 343.46 227.02 343.48 253.05 C 343.37 254.81 343.66 256.88 342.22 258.20 C 338.07 262.54 332.67 265.38 327.99 269.07 C 314.41 279.65 302.14 292.04 292.31 306.20 C 287.29 314.09 282.99 322.40 278.60 330.64 C 277.79 332.41 276.23 333.59 274.62 334.58 C 274.28 326.06 274.83 317.53 274.66 309.00 C 274.35 298.28 276.31 287.68 276.59 276.99 C 277.92 266.86 280.39 256.88 283.93 247.28 C 289.82 229.56 298.77 212.89 310.07 198.04 C 316.17 191.83 321.46 184.77 328.39 179.41 Z" />
<path fill="#fdfcf8" opacity="1.00" d=" M 110.68 246.61 C 116.53 246.31 122.21 247.86 127.99 248.40 C 140.80 250.01 153.02 254.41 165.00 259.03 C 175.45 263.87 186.21 268.35 195.30 275.58 C 208.40 284.20 219.23 295.73 229.25 307.68 C 233.94 313.86 238.83 320.01 242.03 327.13 C 251.81 344.95 258.23 364.70 260.31 384.94 C 260.50 388.73 260.33 392.53 260.27 396.33 C 253.24 396.79 246.43 394.77 239.55 393.75 C 228.48 391.88 217.78 388.21 207.46 383.87 C 203.11 382.16 198.68 380.60 194.62 378.26 C 184.16 372.05 173.53 365.80 164.88 357.12 C 157.21 350.82 150.43 343.57 143.57 336.43 C 138.03 330.42 134.22 323.12 129.92 316.23 C 121.74 301.11 115.85 284.73 112.56 267.87 C 112.07 260.76 110.07 253.78 110.68 246.61 Z" />
<path fill="#fdfcf8" opacity="1.00" d=" M 408.99 248.58 C 414.56 248.32 420.05 247.34 425.55 246.46 C 426.22 254.86 424.77 263.18 423.37 271.43 C 419.95 290.02 411.73 307.28 402.50 323.63 C 397.78 332.46 390.58 339.56 383.59 346.59 C 378.55 351.54 373.57 356.61 367.94 360.91 C 357.60 368.52 347.27 376.39 335.50 381.70 C 326.09 385.80 316.53 389.81 306.55 392.30 C 296.25 394.20 285.96 396.92 275.41 396.58 C 275.49 391.67 276.27 386.81 276.46 381.91 C 278.49 364.17 284.95 347.33 292.52 331.29 C 300.32 316.83 310.07 303.34 322.04 292.05 C 330.11 283.29 340.04 276.60 349.82 269.93 C 356.23 266.21 362.85 262.83 369.63 259.83 C 382.40 255.01 395.38 250.32 408.99 248.58 Z" />
</g>
</svg>
